#include <stdint.h>
const uint8_t midifile[] = {
        0x4D, 0x54, 0x68, 0x64, 0x00, 0x00, 0x00, 0x06, 0x00, 0x01, 0x00, 0x1C, 0x01, 0x80, 0x4D, 0x54, 0x72, 0x6B, 0x00, 0x00, 0x00, 0x43, 0x00, 0xFF, 0x58, 0x04, 0x02, 0x01, 0x60, 0x08, 0x00, 0xFF, 0x7F, 0x03, 0x00, 0x00, 0x41, 0x00, 0xFF, 0x51, 0x03, 0x03, 0x0D, 0x40, 0x85, 0x88, 0x00, 0xFF, 0x51, 0x03, 0x03, 0x1D, 0x31, 0x98, 0x00, 0xFF, 0x51, 0x03, 0x03, 0x1D, 0x31, 0x82, 0x00, 0xFF, 0x51, 0x03, 0x03, 0x17, 0xCE, 0x82, 0x00, 0xFF, 0x51, 0x03, 0x03, 0x12, 0x7E, 0x82, 0x00, 0xFF, 0x51, 0x03, 0x03, 0x0D, 0x40, 0x00, 0xFF, 0x2F, 0x00, 0x4D, 0x54, 0x72, 0x6B, 0x00, 0x00, 0x0B, 0x97, 0x00, 0xFF, 0x03, 0x12, 0x53, 0x74, 0x61, 0x72, 0x46, 0x6F, 0x78, 0x36, 0x34, 0x20, 0x43, 0x6F, 0x72, 0x6E, 0x65, 0x72, 0x69, 0x61, 0x00, 0xB0, 0x00, 0x00, 0x00, 0xC0, 0x2D, 0x00, 0xB0, 0x0A, 0x3A, 0x00, 0xB0, 0x5B, 0x7F, 0x00, 0xB0, 0x5D, 0x00, 0x00, 0xFF, 0x59, 0x02, 0xFE, 0x00, 0x00, 0x90, 0x43, 0x7F, 0x00, 0xB0, 0x07, 0x46, 0x81, 0x00, 0x80, 0x43, 0x55, 0x40, 0x90, 0x3E, 0x7F, 0x82, 0x00, 0x80, 0x3E, 0x55, 0x81, 0x00, 0x90, 0x41, 0x7F, 0x81, 0x00, 0x80, 0x41, 0x55, 0x40, 0x90, 0x43, 0x7F, 0x81, 0x00, 0x80, 0x43, 0x55, 0x40, 0x90, 0x41, 0x7F, 0x81, 0x00, 0x80, 0x41, 0x55, 0x40, 0x90, 0x3E, 0x7F, 0x81, 0x00, 0x80, 0x3E, 0x55, 0x40, 0x90, 0x43, 0x7F, 0x81, 0x00, 0x80, 0x43, 0x55, 0x40, 0x90, 0x43, 0x7F, 0x81, 0x00, 0x80, 0x43, 0x55, 0x40, 0x90, 0x3E, 0x7F, 0x81, 0x00, 0x80, 0x3E, 0x55, 0x40, 0x90, 0x46, 0x7F, 0x81, 0x00, 0x80, 0x46, 0x55, 0x40, 0x90, 0x43, 0x7F, 0x81, 0x00, 0x80, 0x43, 0x55, 0x40, 0x90, 0x43, 0x64, 0x81, 0x18, 0x80, 0x43, 0x40, 0x28, 0x90, 0x3E, 0x64, 0x81, 0x18, 0x80, 0x3E, 0x40, 0x28, 0x90, 0x43, 0x7F, 0x81, 0x00, 0x80, 0x43, 0x55, 0x40, 0x90, 0x41, 0x7F, 0x81, 0x00, 0x80, 0x41, 0x55, 0x40, 0x90, 0x43, 0x7F, 0x82, 0x00, 0x80, 0x43, 0x55, 0x81, 0x00, 0x90, 0x41, 0x7F, 0x82, 0x38, 0x80, 0x41, 0x53, 0x48, 0x90, 0x43, 0x7F, 0x82, 0x38, 0x80, 0x43, 0x53, 0x48, 0x90, 0x46, 0x7F, 0x82, 0x38, 0x80, 0x46, 0x53, 0x48, 0x90, 0x45, 0x7F, 0x82, 0x38, 0x80, 0x45, 0x53, 0x48, 0x90, 0x41, 0x7F, 0x82, 0x38, 0x80, 0x41, 0x53, 0x48, 0x90, 0x3E, 0x7F, 0x82, 0x38, 0x80, 0x3E, 0x53, 0x48, 0x90, 0x41, 0x7F, 0x82, 0x38, 0x80, 0x41, 0x53, 0x48, 0x90, 0x43, 0x7F, 0x81, 0x00, 0x80, 0x43, 0x55, 0x40, 0x90, 0x3E, 0x7F, 0x82, 0x00, 0x80, 0x3E, 0x55, 0x81, 0x00, 0x90, 0x41, 0x7F, 0x81, 0x00, 0x80, 0x41, 0x55, 0x40, 0x90, 0x43, 0x7F, 0x81, 0x00, 0x80, 0x43, 0x55, 0x40, 0x90, 0x41, 0x7F, 0x81, 0x00, 0x80, 0x41, 0x55, 0x40, 0x90, 0x3E, 0x7F, 0x81, 0x00, 0x80, 0x3E, 0x55, 0x40, 0x90, 0x43, 0x7F, 0x81, 0x00, 0x80, 0x43, 0x55, 0x40, 0x90, 0x43, 0x7F, 0x81, 0x00, 0x80, 0x43, 0x55, 0x40, 0x90, 0x3E, 0x7F, 0x81, 0x00, 0x80, 0x3E, 0x55, 0x40, 0x90, 0x46, 0x7F, 0x81, 0x00, 0x80, 0x46, 0x55, 0x40, 0x90, 0x43, 0x7F, 0x81, 0x00, 0x80, 0x43, 0x55, 0x40, 0x90, 0x43, 0x64, 0x81, 0x18, 0x80, 0x43, 0x40, 0x28, 0x90, 0x3E, 0x64, 0x81, 0x18, 0x80, 0x3E, 0x40, 0x28, 0x90, 0x43, 0x7F, 0x81, 0x00, 0x80, 0x43, 0x55, 0x40, 0x90, 0x41, 0x7F, 0x81, 0x00, 0x80, 0x41, 0x55, 0x40, 0x90, 0x43, 0x7F, 0x82, 0x00, 0x80, 0x43, 0x55, 0x81, 0x00, 0x90, 0x41, 0x7F, 0x82, 0x38, 0x80, 0x41, 0x53, 0x48, 0x90, 0x43, 0x7F, 0x82, 0x38, 0x80, 0x43, 0x53, 0x48, 0x90, 0x46, 0x7F, 0x82, 0x38, 0x80, 0x46, 0x53, 0x48, 0x90, 0x45, 0x7F, 0x82, 0x38, 0x80, 0x45, 0x53, 0x48, 0x90, 0x41, 0x7F, 0x82, 0x38, 0x80, 0x41, 0x53, 0x48, 0x90, 0x3E, 0x7F, 0x82, 0x38, 0x80, 0x3E, 0x53, 0x48, 0x90, 0x41, 0x7F, 0x82, 0x38, 0x80, 0x41, 0x53, 0x48, 0x90, 0x43, 0x7F, 0x81, 0x00, 0x80, 0x43, 0x55, 0x40, 0x90, 0x3E, 0x7F, 0x82, 0x00, 0x80, 0x3E, 0x55, 0x81, 0x00, 0x90, 0x41, 0x7F, 0x81, 0x00, 0x80, 0x41, 0x55, 0x40, 0x90, 0x43, 0x7F, 0x81, 0x00, 0x80, 0x43, 0x55, 0x40, 0x90, 0x41, 0x7F, 0x81, 0x00, 0x80, 0x41, 0x55, 0x40, 0x90, 0x3E, 0x7F, 0x81, 0x00, 0x80, 0x3E, 0x55, 0x40, 0x90, 0x43, 0x7F, 0x81, 0x00, 0x80, 0x43, 0x55, 0x40, 0x90, 0x43, 0x7F, 0x81, 0x00, 0x80, 0x43, 0x55, 0x40, 0x90, 0x3E, 0x7F, 0x81, 0x00, 0x80, 0x3E, 0x55, 0x40, 0x90, 0x46, 0x7F, 0x81, 0x00, 0x80, 0x46, 0x55, 0x40, 0x90, 0x43, 0x7F, 0x81, 0x00, 0x80, 0x43, 0x55, 0x40, 0x90, 0x43, 0x64, 0x81, 0x18, 0x80, 0x43, 0x40, 0x28, 0x90, 0x3E, 0x64, 0x81, 0x18, 0x80, 0x3E, 0x40, 0x28, 0x90, 0x43, 0x7F, 0x81, 0x00, 0x80, 0x43, 0x55, 0x40, 0x90, 0x41, 0x7F, 0x81, 0x00, 0x80, 0x41, 0x55, 0x40, 0x90, 0x43, 0x7F, 0x82, 0x00, 0x80, 0x43, 0x55, 0x81, 0x00, 0x90, 0x41, 0x7F, 0x82, 0x38, 0x80, 0x41, 0x53, 0x48, 0x90, 0x43, 0x7F, 0x82, 0x38, 0x80, 0x43, 0x53, 0x48, 0x90, 0x46, 0x7F, 0x82, 0x38, 0x80, 0x46, 0x53, 0x48, 0x90, 0x45, 0x7F, 0x82, 0x38, 0x80, 0x45, 0x53, 0x48, 0x90, 0x41, 0x7F, 0x82, 0x38, 0x80, 0x41, 0x53, 0x48, 0x90, 0x3E, 0x7F, 0x82, 0x38, 0x80, 0x3E, 0x53, 0x48, 0x90, 0x41, 0x7F, 0x82, 0x38, 0x80, 0x41, 0x53, 0x48, 0x90, 0x43, 0x7F, 0x81, 0x00, 0x80, 0x43, 0x55, 0x40, 0x90, 0x3E, 0x7F, 0x82, 0x00, 0x80, 0x3E, 0x55, 0x81, 0x00, 0x90, 0x41, 0x7F, 0x81, 0x00, 0x80, 0x41, 0x55, 0x40, 0x90, 0x43, 0x7F, 0x81, 0x00, 0x80, 0x43, 0x55, 0x40, 0x90, 0x41, 0x7F, 0x81, 0x00, 0x80, 0x41, 0x55, 0x40, 0x90, 0x3E, 0x7F, 0x81, 0x00, 0x80, 0x3E, 0x55, 0x40, 0x90, 0x43, 0x7F, 0x81, 0x00, 0x80, 0x43, 0x55, 0x40, 0x90, 0x43, 0x7F, 0x81, 0x00, 0x80, 0x43, 0x55, 0x40, 0x90, 0x3E, 0x7F, 0x81, 0x00, 0x80, 0x3E, 0x55, 0x40, 0x90, 0x46, 0x7F, 0x81, 0x00, 0x80, 0x46, 0x55, 0x40, 0x90, 0x43, 0x7F, 0x81, 0x00, 0x80, 0x43, 0x55, 0x40, 0x90, 0x43, 0x64, 0x81, 0x18, 0x80, 0x43, 0x40, 0x28, 0x90, 0x3E, 0x64, 0x81, 0x18, 0x80, 0x3E, 0x40, 0x28, 0x90, 0x43, 0x7F, 0x81, 0x00, 0x80, 0x43, 0x55, 0x40, 0x90, 0x41, 0x7F, 0x81, 0x00, 0x80, 0x41, 0x55, 0x40, 0x90, 0x43, 0x7F, 0x82, 0x00, 0x80, 0x43, 0x55, 0x81, 0x00, 0x90, 0x41, 0x7F, 0x82, 0x38, 0x80, 0x41, 0x53, 0x48, 0x90, 0x43, 0x7F, 0x82, 0x38, 0x80, 0x43, 0x53, 0x48, 0x90, 0x46, 0x7F, 0x82, 0x38, 0x80, 0x46, 0x53, 0x48, 0x90, 0x45, 0x7F, 0x82, 0x38, 0x80, 0x45, 0x53, 0x48, 0x90, 0x41, 0x7F, 0x82, 0x38, 0x80, 0x41, 0x53, 0x48, 0x90, 0x3E, 0x7F, 0x82, 0x38, 0x80, 0x3E, 0x53, 0x48, 0x90, 0x41, 0x7F, 0x82, 0x38, 0x80, 0x41, 0x53, 0x48, 0x90, 0x43, 0x7F, 0x81, 0x00, 0x80, 0x43, 0x55, 0x40, 0x90, 0x3E, 0x7F, 0x82, 0x00, 0x80, 0x3E, 0x55, 0x81, 0x00, 0x90, 0x41, 0x7F, 0x81, 0x00, 0x80, 0x41, 0x55, 0x40, 0x90, 0x43, 0x7F, 0x81, 0x00, 0x80, 0x43, 0x55, 0x40, 0x90, 0x41, 0x7F, 0x81, 0x00, 0x80, 0x41, 0x55, 0x40, 0x90, 0x3E, 0x7F, 0x81, 0x00, 0x80, 0x3E, 0x55, 0x40, 0x90, 0x43, 0x7F, 0x81, 0x00, 0x80, 0x43, 0x55, 0x40, 0x90, 0x43, 0x7F, 0x81, 0x00, 0x80, 0x43, 0x55, 0x40, 0x90, 0x3E, 0x7F, 0x81, 0x00, 0x80, 0x3E, 0x55, 0x40, 0x90, 0x46, 0x7F, 0x81, 0x00, 0x80, 0x46, 0x55, 0x40, 0x90, 0x43, 0x7F, 0x81, 0x00, 0x80, 0x43, 0x55, 0x40, 0x90, 0x43, 0x64, 0x81, 0x18, 0x80, 0x43, 0x40, 0x28, 0x90, 0x3E, 0x64, 0x81, 0x18, 0x80, 0x3E, 0x40, 0x28, 0x90, 0x43, 0x7F, 0x81, 0x00, 0x80, 0x43, 0x55, 0x40, 0x90, 0x41, 0x7F, 0x81, 0x00, 0x80, 0x41, 0x55, 0x40, 0x90, 0x43, 0x7F, 0x82, 0x00, 0x80, 0x43, 0x55, 0x81, 0x00, 0x90, 0x41, 0x7F, 0x82, 0x38, 0x80, 0x41, 0x53, 0x48, 0x90, 0x43, 0x7F, 0x82, 0x38, 0x80, 0x43, 0x53, 0x48, 0x90, 0x46, 0x7F, 0x82, 0x38, 0x80, 0x46, 0x53, 0x48, 0x90, 0x45, 0x7F, 0x82, 0x38, 0x80, 0x45, 0x53, 0x48, 0x90, 0x41, 0x7F, 0x82, 0x38, 0x80, 0x41, 0x53, 0x48, 0x90, 0x3E, 0x7F, 0x82, 0x38, 0x80, 0x3E, 0x53, 0x48, 0x90, 0x41, 0x7F, 0x82, 0x38, 0x80, 0x41, 0x53, 0x48, 0x90, 0x43, 0x7F, 0x81, 0x00, 0x80, 0x43, 0x55, 0x40, 0x90, 0x3E, 0x7F, 0x82, 0x00, 0x80, 0x3E, 0x55, 0x81, 0x00, 0x90, 0x41, 0x7F, 0x81, 0x00, 0x80, 0x41, 0x55, 0x40, 0x90, 0x43, 0x7F, 0x81, 0x00, 0x80, 0x43, 0x55, 0x40, 0x90, 0x41, 0x7F, 0x81, 0x00, 0x80, 0x41, 0x55, 0x40, 0x90, 0x3E, 0x7F, 0x81, 0x00, 0x80, 0x3E, 0x55, 0x40, 0x90, 0x43, 0x7F, 0x81, 0x00, 0x80, 0x43, 0x55, 0x40, 0x90, 0x43, 0x7F, 0x81, 0x00, 0x80, 0x43, 0x55, 0x40, 0x90, 0x3E, 0x7F, 0x81, 0x00, 0x80, 0x3E, 0x55, 0x40, 0x90, 0x46, 0x7F, 0x81, 0x00, 0x80, 0x46, 0x55, 0x40, 0x90, 0x43, 0x7F, 0x81, 0x00, 0x80, 0x43, 0x55, 0x40, 0x90, 0x43, 0x64, 0x81, 0x18, 0x80, 0x43, 0x40, 0x28, 0x90, 0x3E, 0x64, 0x81, 0x18, 0x80, 0x3E, 0x40, 0x28, 0x90, 0x43, 0x7F, 0x81, 0x00, 0x80, 0x43, 0x55, 0x40, 0x90, 0x41, 0x7F, 0x81, 0x00, 0x80, 0x41, 0x55, 0x40, 0x90, 0x43, 0x7F, 0x82, 0x00, 0x80, 0x43, 0x55, 0x81, 0x00, 0x90, 0x41, 0x7F, 0x82, 0x38, 0x80, 0x41, 0x53, 0x48, 0x90, 0x43, 0x7F, 0x82, 0x38, 0x80, 0x43, 0x53, 0x48, 0x90, 0x46, 0x7F, 0x82, 0x38, 0x80, 0x46, 0x53, 0x48, 0x90, 0x45, 0x7F, 0x82, 0x38, 0x80, 0x45, 0x53, 0x48, 0x90, 0x41, 0x7F, 0x82, 0x38, 0x80, 0x41, 0x53, 0x48, 0x90, 0x3E, 0x7F, 0x82, 0x38, 0x80, 0x3E, 0x53, 0x48, 0x90, 0x41, 0x7F, 0x82, 0x38, 0x80, 0x41, 0x53, 0x48, 0x90, 0x43, 0x7F, 0x81, 0x00, 0x80, 0x43, 0x55, 0x40, 0x90, 0x3E, 0x7F, 0x82, 0x00, 0x80, 0x3E, 0x55, 0x81, 0x00, 0x90, 0x41, 0x7F, 0x81, 0x00, 0x80, 0x41, 0x55, 0x40, 0x90, 0x43, 0x7F, 0x81, 0x00, 0x80, 0x43, 0x55, 0x40, 0x90, 0x41, 0x7F, 0x81, 0x00, 0x80, 0x41, 0x55, 0x40, 0x90, 0x3E, 0x7F, 0x81, 0x00, 0x80, 0x3E, 0x55, 0x40, 0x90, 0x43, 0x7F, 0x81, 0x00, 0x80, 0x43, 0x55, 0x40, 0x90, 0x43, 0x7F, 0x81, 0x00, 0x80, 0x43, 0x55, 0x40, 0x90, 0x3E, 0x7F, 0x81, 0x00, 0x80, 0x3E, 0x55, 0x40, 0x90, 0x46, 0x7F, 0x81, 0x00, 0x80, 0x46, 0x55, 0x40, 0x90, 0x43, 0x7F, 0x81, 0x00, 0x80, 0x43, 0x55, 0x40, 0x90, 0x43, 0x64, 0x81, 0x18, 0x80, 0x43, 0x40, 0x28, 0x90, 0x3E, 0x64, 0x81, 0x18, 0x80, 0x3E, 0x40, 0x28, 0x90, 0x43, 0x7F, 0x81, 0x00, 0x80, 0x43, 0x55, 0x40, 0x90, 0x41, 0x7F, 0x81, 0x00, 0x80, 0x41, 0x55, 0x40, 0x90, 0x43, 0x7F, 0x82, 0x00, 0x80, 0x43, 0x55, 0x81, 0x00, 0x90, 0x41, 0x7F, 0x82, 0x38, 0x80, 0x41, 0x53, 0x48, 0x90, 0x43, 0x7F, 0x82, 0x38, 0x80, 0x43, 0x53, 0x48, 0x90, 0x46, 0x7F, 0x82, 0x38, 0x80, 0x46, 0x53, 0x48, 0x90, 0x45, 0x7F, 0x82, 0x38, 0x80, 0x45, 0x53, 0x48, 0x90, 0x41, 0x7F, 0x82, 0x38, 0x80, 0x41, 0x53, 0x48, 0x90, 0x3E, 0x7F, 0x82, 0x38, 0x80, 0x3E, 0x53, 0x48, 0x90, 0x41, 0x7F, 0x82, 0x38, 0x80, 0x41, 0x53, 0x48, 0x90, 0x43, 0x7F, 0x81, 0x00, 0x80, 0x43, 0x55, 0x40, 0x90, 0x3E, 0x7F, 0x82, 0x00, 0x80, 0x3E, 0x55, 0x81, 0x00, 0x90, 0x41, 0x7F, 0x81, 0x00, 0x80, 0x41, 0x55, 0x40, 0x90, 0x43, 0x7F, 0x81, 0x00, 0x80, 0x43, 0x55, 0x40, 0x90, 0x41, 0x7F, 0x81, 0x00, 0x80, 0x41, 0x55, 0x40, 0x90, 0x3E, 0x7F, 0x81, 0x00, 0x80, 0x3E, 0x55, 0x40, 0x90, 0x43, 0x7F, 0x81, 0x00, 0x80, 0x43, 0x55, 0x40, 0x90, 0x43, 0x7F, 0x81, 0x00, 0x80, 0x43, 0x55, 0x40, 0x90, 0x3E, 0x7F, 0x81, 0x00, 0x80, 0x3E, 0x55, 0x40, 0x90, 0x46, 0x7F, 0x81, 0x00, 0x80, 0x46, 0x55, 0x40, 0x90, 0x43, 0x7F, 0x81, 0x00, 0x80, 0x43, 0x55, 0x40, 0x90, 0x43, 0x64, 0x81, 0x18, 0x80, 0x43, 0x40, 0x28, 0x90, 0x3E, 0x64, 0x81, 0x18, 0x80, 0x3E, 0x40, 0x28, 0x90, 0x43, 0x7F, 0x81, 0x00, 0x80, 0x43, 0x55, 0x40, 0x90, 0x41, 0x7F, 0x81, 0x00, 0x80, 0x41, 0x55, 0x40, 0x90, 0x43, 0x7F, 0x82, 0x00, 0x80, 0x43, 0x55, 0x81, 0x00, 0x90, 0x41, 0x7F, 0x82, 0x38, 0x80, 0x41, 0x53, 0x48, 0x90, 0x43, 0x7F, 0x82, 0x38, 0x80, 0x43, 0x53, 0x48, 0x90, 0x46, 0x7F, 0x82, 0x38, 0x80, 0x46, 0x53, 0x48, 0x90, 0x45, 0x7F, 0x82, 0x38, 0x80, 0x45, 0x53, 0x48, 0x90, 0x41, 0x7F, 0x82, 0x38, 0x80, 0x41, 0x53, 0x48, 0x90, 0x3E, 0x7F, 0x82, 0x38, 0x80, 0x3E, 0x53, 0x48, 0x90, 0x41, 0x7F, 0x82, 0x38, 0x80, 0x41, 0x53, 0x48, 0x90, 0x43, 0x7F, 0x81, 0x00, 0x80, 0x43, 0x55, 0x40, 0x90, 0x3E, 0x7F, 0x82, 0x00, 0x80, 0x3E, 0x55, 0x81, 0x00, 0x90, 0x41, 0x7F, 0x81, 0x00, 0x80, 0x41, 0x55, 0x40, 0x90, 0x43, 0x7F, 0x81, 0x00, 0x80, 0x43, 0x55, 0x40, 0x90, 0x41, 0x7F, 0x81, 0x00, 0x80, 0x41, 0x55, 0x40, 0x90, 0x3E, 0x7F, 0x81, 0x00, 0x80, 0x3E, 0x55, 0x40, 0x90, 0x43, 0x7F, 0x81, 0x00, 0x80, 0x43, 0x55, 0x40, 0x90, 0x43, 0x7F, 0x81, 0x00, 0x80, 0x43, 0x55, 0x40, 0x90, 0x3E, 0x7F, 0x81, 0x00, 0x80, 0x3E, 0x55, 0x40, 0x90, 0x46, 0x7F, 0x81, 0x00, 0x80, 0x46, 0x55, 0x40, 0x90, 0x43, 0x7F, 0x81, 0x00, 0x80, 0x43, 0x55, 0x40, 0x90, 0x43, 0x64, 0x81, 0x18, 0x80, 0x43, 0x40, 0x28, 0x90, 0x3E, 0x64, 0x81, 0x18, 0x80, 0x3E, 0x40, 0x28, 0x90, 0x43, 0x7F, 0x81, 0x00, 0x80, 0x43, 0x55, 0x40, 0x90, 0x41, 0x7F, 0x81, 0x00, 0x80, 0x41, 0x55, 0x40, 0x90, 0x43, 0x7F, 0x82, 0x00, 0x80, 0x43, 0x55, 0x81, 0x00, 0x90, 0x41, 0x7F, 0x82, 0x38, 0x80, 0x41, 0x53, 0x48, 0x90, 0x43, 0x7F, 0x82, 0x38, 0x80, 0x43, 0x53, 0x48, 0x90, 0x46, 0x7F, 0x82, 0x38, 0x80, 0x46, 0x53, 0x48, 0x90, 0x45, 0x7F, 0x82, 0x38, 0x80, 0x45, 0x53, 0x48, 0x90, 0x41, 0x7F, 0x82, 0x38, 0x80, 0x41, 0x53, 0x48, 0x90, 0x3E, 0x7F, 0x82, 0x38, 0x80, 0x3E, 0x53, 0x48, 0x90, 0x41, 0x7F, 0x82, 0x38, 0x80, 0x41, 0x53, 0x48, 0x90, 0x43, 0x7F, 0x81, 0x00, 0x80, 0x43, 0x55, 0x40, 0x90, 0x3E, 0x7F, 0x82, 0x00, 0x80, 0x3E, 0x55, 0x81, 0x00, 0x90, 0x41, 0x7F, 0x81, 0x00, 0x80, 0x41, 0x55, 0x40, 0x90, 0x43, 0x7F, 0x81, 0x00, 0x80, 0x43, 0x55, 0x40, 0x90, 0x41, 0x7F, 0x81, 0x00, 0x80, 0x41, 0x55, 0x40, 0x90, 0x3E, 0x7F, 0x81, 0x00, 0x80, 0x3E, 0x55, 0x40, 0x90, 0x43, 0x7F, 0x81, 0x00, 0x80, 0x43, 0x55, 0x40, 0x90, 0x43, 0x7F, 0x81, 0x00, 0x80, 0x43, 0x55, 0x40, 0x90, 0x3E, 0x7F, 0x81, 0x00, 0x80, 0x3E, 0x55, 0x40, 0x90, 0x46, 0x7F, 0x81, 0x00, 0x80, 0x46, 0x55, 0x40, 0x90, 0x43, 0x7F, 0x81, 0x00, 0x80, 0x43, 0x55, 0x40, 0x90, 0x43, 0x64, 0x81, 0x18, 0x80, 0x43, 0x40, 0x28, 0x90, 0x3E, 0x64, 0x81, 0x18, 0x80, 0x3E, 0x40, 0x28, 0x90, 0x43, 0x7F, 0x81, 0x00, 0x80, 0x43, 0x55, 0x40, 0x90, 0x41, 0x7F, 0x81, 0x00, 0x80, 0x41, 0x55, 0x40, 0x90, 0x43, 0x7F, 0x82, 0x00, 0x80, 0x43, 0x55, 0x81, 0x00, 0x90, 0x41, 0x7F, 0x82, 0x38, 0x80, 0x41, 0x53, 0x48, 0x90, 0x43, 0x7F, 0x82, 0x38, 0x80, 0x43, 0x53, 0x48, 0x90, 0x46, 0x7F, 0x82, 0x38, 0x80, 0x46, 0x53, 0x48, 0x90, 0x45, 0x7F, 0x82, 0x38, 0x80, 0x45, 0x53, 0x48, 0x90, 0x41, 0x7F, 0x82, 0x38, 0x80, 0x41, 0x53, 0x48, 0x90, 0x3E, 0x7F, 0x82, 0x38, 0x80, 0x3E, 0x53, 0x48, 0x90, 0x41, 0x7F, 0x82, 0x38, 0x80, 0x41, 0x53, 0x81, 0xCC, 0x48, 0x90, 0x43, 0x7F, 0x81, 0x00, 0x80, 0x43, 0x55, 0x40, 0x90, 0x3E, 0x7F, 0x82, 0x00, 0x80, 0x3E, 0x55, 0x81, 0x00, 0x90, 0x41, 0x7F, 0x81, 0x00, 0x80, 0x41, 0x55, 0x40, 0x90, 0x43, 0x7F, 0x81, 0x00, 0x80, 0x43, 0x55, 0x40, 0x90, 0x41, 0x7F, 0x81, 0x00, 0x80, 0x41, 0x55, 0x40, 0x90, 0x3E, 0x7F, 0x81, 0x00, 0x80, 0x3E, 0x55, 0x40, 0x90, 0x43, 0x7F, 0x81, 0x00, 0x80, 0x43, 0x55, 0x40, 0x90, 0x43, 0x7F, 0x81, 0x00, 0x80, 0x43, 0x55, 0x40, 0x90, 0x3E, 0x7F, 0x81, 0x00, 0x80, 0x3E, 0x55, 0x40, 0x90, 0x46, 0x7F, 0x81, 0x00, 0x80, 0x46, 0x55, 0x40, 0x90, 0x43, 0x7F, 0x81, 0x00, 0x80, 0x43, 0x55, 0x40, 0x90, 0x43, 0x64, 0x81, 0x18, 0x80, 0x43, 0x40, 0x28, 0x90, 0x3E, 0x64, 0x81, 0x18, 0x80, 0x3E, 0x40, 0x28, 0x90, 0x43, 0x7F, 0x81, 0x00, 0x80, 0x43, 0x55, 0x40, 0x90, 0x41, 0x7F, 0x81, 0x00, 0x80, 0x41, 0x55, 0x40, 0x90, 0x43, 0x7F, 0x82, 0x00, 0x80, 0x43, 0x55, 0x81, 0x00, 0x90, 0x41, 0x7F, 0x82, 0x38, 0x80, 0x41, 0x53, 0x48, 0x90, 0x43, 0x7F, 0x82, 0x38, 0x80, 0x43, 0x53, 0x48, 0x90, 0x46, 0x7F, 0x82, 0x38, 0x80, 0x46, 0x53, 0x48, 0x90, 0x45, 0x7F, 0x82, 0x38, 0x80, 0x45, 0x53, 0x48, 0x90, 0x41, 0x7F, 0x82, 0x38, 0x80, 0x41, 0x53, 0x48, 0x90, 0x3E, 0x7F, 0x82, 0x38, 0x80, 0x3E, 0x53, 0x48, 0x90, 0x41, 0x7F, 0x82, 0x38, 0x80, 0x41, 0x53, 0x48, 0x90, 0x43, 0x7F, 0x81, 0x00, 0x80, 0x43, 0x55, 0x40, 0x90, 0x3E, 0x7F, 0x82, 0x00, 0x80, 0x3E, 0x55, 0x81, 0x00, 0x90, 0x41, 0x7F, 0x81, 0x00, 0x80, 0x41, 0x55, 0x40, 0x90, 0x43, 0x7F, 0x81, 0x00, 0x80, 0x43, 0x55, 0x40, 0x90, 0x41, 0x7F, 0x81, 0x00, 0x80, 0x41, 0x55, 0x40, 0x90, 0x3E, 0x7F, 0x81, 0x00, 0x80, 0x3E, 0x55, 0x40, 0x90, 0x43, 0x7F, 0x81, 0x00, 0x80, 0x43, 0x55, 0x40, 0x90, 0x43, 0x7F, 0x81, 0x00, 0x80, 0x43, 0x55, 0x40, 0x90, 0x3E, 0x7F, 0x81, 0x00, 0x80, 0x3E, 0x55, 0x40, 0x90, 0x46, 0x7F, 0x81, 0x00, 0x80, 0x46, 0x55, 0x40, 0x90, 0x43, 0x7F, 0x81, 0x00, 0x80, 0x43, 0x55, 0x40, 0x90, 0x43, 0x64, 0x81, 0x18, 0x80, 0x43, 0x40, 0x28, 0x90, 0x3E, 0x64, 0x81, 0x18, 0x80, 0x3E, 0x40, 0x28, 0x90, 0x43, 0x7F, 0x81, 0x00, 0x80, 0x43, 0x55, 0x40, 0x90, 0x41, 0x7F, 0x81, 0x00, 0x80, 0x41, 0x55, 0x40, 0x90, 0x43, 0x7F, 0x82, 0x00, 0x80, 0x43, 0x55, 0x81, 0x00, 0x90, 0x41, 0x7F, 0x82, 0x38, 0x80, 0x41, 0x53, 0x48, 0x90, 0x43, 0x7F, 0x82, 0x38, 0x80, 0x43, 0x53, 0x48, 0x90, 0x46, 0x7F, 0x82, 0x38, 0x80, 0x46, 0x53, 0x48, 0x90, 0x45, 0x7F, 0x82, 0x38, 0x80, 0x45, 0x53, 0x48, 0x90, 0x41, 0x7F, 0x82, 0x38, 0x80, 0x41, 0x53, 0x48, 0x90, 0x3E, 0x7F, 0x82, 0x38, 0x80, 0x3E, 0x53, 0x48, 0x90, 0x41, 0x7F, 0x82, 0x38, 0x80, 0x41, 0x53, 0x48, 0x90, 0x43, 0x7F, 0x81, 0x00, 0x80, 0x43, 0x55, 0x40, 0x90, 0x3E, 0x7F, 0x82, 0x00, 0x80, 0x3E, 0x55, 0x81, 0x00, 0x90, 0x41, 0x7F, 0x81, 0x00, 0x80, 0x41, 0x55, 0x40, 0x90, 0x43, 0x7F, 0x81, 0x00, 0x80, 0x43, 0x55, 0x40, 0x90, 0x41, 0x7F, 0x81, 0x00, 0x80, 0x41, 0x55, 0x40, 0x90, 0x3E, 0x7F, 0x81, 0x00, 0x80, 0x3E, 0x55, 0x40, 0x90, 0x43, 0x7F, 0x81, 0x00, 0x80, 0x43, 0x55, 0x40, 0x90, 0x43, 0x7F, 0x81, 0x00, 0x80, 0x43, 0x55, 0x40, 0x90, 0x3E, 0x7F, 0x81, 0x00, 0x80, 0x3E, 0x55, 0x40, 0x90, 0x46, 0x7F, 0x81, 0x00, 0x80, 0x46, 0x55, 0x40, 0x90, 0x43, 0x7F, 0x81, 0x00, 0x80, 0x43, 0x55, 0x40, 0x90, 0x43, 0x7F, 0x82, 0x00, 0x80, 0x43, 0x55, 0x81, 0x00, 0x90, 0x43, 0x7F, 0x81, 0x00, 0x80, 0x43, 0x55, 0x40, 0x90, 0x41, 0x7F, 0x81, 0x00, 0x80, 0x41, 0x55, 0x40, 0x90, 0x43, 0x7F, 0x82, 0x00, 0x80, 0x43, 0x55, 0x81, 0x00, 0x90, 0x41, 0x7F, 0x82, 0x38, 0x80, 0x41, 0x53, 0x48, 0x90, 0x43, 0x7F, 0x82, 0x38, 0x80, 0x43, 0x53, 0x48, 0x90, 0x46, 0x7F, 0x82, 0x38, 0x80, 0x46, 0x53, 0x48, 0x90, 0x45, 0x7F, 0x82, 0x38, 0x80, 0x45, 0x53, 0x48, 0x90, 0x41, 0x7F, 0x82, 0x38, 0x80, 0x41, 0x53, 0x48, 0x90, 0x3E, 0x7F, 0x82, 0x38, 0x80, 0x3E, 0x53, 0x48, 0x90, 0x41, 0x7F, 0x82, 0x38, 0x80, 0x41, 0x53, 0x48, 0x90, 0x43, 0x7F, 0x81, 0x00, 0x80, 0x43, 0x55, 0x40, 0x90, 0x3E, 0x7F, 0x82, 0x00, 0x80, 0x3E, 0x55, 0x81, 0x00, 0x90, 0x41, 0x7F, 0x81, 0x00, 0x80, 0x41, 0x55, 0x40, 0x90, 0x43, 0x7F, 0x81, 0x00, 0x80, 0x43, 0x55, 0x40, 0x90, 0x41, 0x7F, 0x81, 0x00, 0x80, 0x41, 0x55, 0x40, 0x90, 0x3E, 0x7F, 0x81, 0x00, 0x80, 0x3E, 0x55, 0x40, 0x90, 0x43, 0x7F, 0x81, 0x00, 0x80, 0x43, 0x55, 0x40, 0x90, 0x43, 0x7F, 0x81, 0x00, 0x80, 0x43, 0x55, 0x40, 0x90, 0x3E, 0x7F, 0x81, 0x00, 0x80, 0x3E, 0x55, 0x40, 0x90, 0x46, 0x7F, 0x81, 0x00, 0x80, 0x46, 0x55, 0x40, 0x90, 0x43, 0x7F, 0x81, 0x00, 0x80, 0x43, 0x55, 0x40, 0x90, 0x43, 0x7F, 0x82, 0x00, 0x80, 0x43, 0x55, 0x81, 0x00, 0x90, 0x43, 0x7F, 0x81, 0x00, 0x80, 0x43, 0x55, 0x40, 0x90, 0x41, 0x7F, 0x81, 0x00, 0x80, 0x41, 0x55, 0x40, 0x90, 0x43, 0x7F, 0x82, 0x00, 0x80, 0x43, 0x55, 0x81, 0x00, 0x90, 0x41, 0x7F, 0x82, 0x38, 0x80, 0x41, 0x53, 0x48, 0x90, 0x43, 0x7F, 0x82, 0x38, 0x80, 0x43, 0x53, 0x48, 0x90, 0x46, 0x7F, 0x82, 0x38, 0x80, 0x46, 0x53, 0x48, 0x90, 0x45, 0x7F, 0x82, 0x38, 0x80, 0x45, 0x53, 0x48, 0x90, 0x41, 0x7F, 0x82, 0x38, 0x80, 0x41, 0x53, 0x48, 0x90, 0x3E, 0x7F, 0x82, 0x38, 0x80, 0x3E, 0x53, 0x48, 0x90, 0x41, 0x7F, 0x82, 0x38, 0x80, 0x41, 0x53, 0x00, 0xFF, 0x2F, 0x00, 0x4D, 0x54, 0x72, 0x6B, 0x00, 0x00, 0x02, 0x11, 0x00, 0xFF, 0x03, 0x0F, 0x46, 0x72, 0x6F, 0x6D, 0x20, 0x4E, 0x69, 0x6E, 0x74, 0x65, 0x6E, 0x64, 0x6F, 0x36, 0x34, 0x00, 0xB1, 0x00, 0x00, 0x00, 0xC1, 0x37, 0x00, 0xB1, 0x0A, 0x3F, 0x00, 0xB1, 0x5B, 0x7C, 0x00, 0xB1, 0x5D, 0x44, 0x00, 0xFF, 0x59, 0x02, 0xFE, 0x00, 0x81, 0xBC, 0x70, 0xB1, 0x07, 0x7F, 0x83, 0x10, 0x91, 0x43, 0x7F, 0x88, 0x00, 0x81, 0x43, 0x7F, 0xA8, 0x00, 0x91, 0x43, 0x7F, 0x88, 0x00, 0x81, 0x43, 0x7F, 0xA8, 0x00, 0x91, 0x43, 0x7F, 0x8A, 0x38, 0x81, 0x43, 0x7F, 0x99, 0x48, 0x91, 0x43, 0x7F, 0x82, 0x48, 0x81, 0x43, 0x7F, 0x38, 0x91, 0x45, 0x7F, 0x85, 0x18, 0x81, 0x45, 0x7F, 0x68, 0x91, 0x46, 0x7F, 0x82, 0x48, 0x81, 0x46, 0x7F, 0x38, 0x91, 0x3F, 0x7F, 0x8A, 0x38, 0x81, 0x3F, 0x7F, 0x8D, 0x48, 0x91, 0x41, 0x7F, 0x8A, 0x38, 0x81, 0x41, 0x7F, 0x87, 0x48, 0x91, 0x41, 0x7F, 0x85, 0x18, 0x81, 0x41, 0x7F, 0x68, 0x91, 0x43, 0x7F, 0x8A, 0x38, 0x81, 0x43, 0x7F, 0x99, 0x48, 0x91, 0x43, 0x7F, 0x82, 0x48, 0x81, 0x43, 0x7F, 0x38, 0x91, 0x45, 0x7F, 0x85, 0x18, 0x81, 0x45, 0x7F, 0x68, 0x91, 0x46, 0x7F, 0x82, 0x48, 0x81, 0x46, 0x7F, 0x38, 0x91, 0x3F, 0x7F, 0x8A, 0x38, 0x81, 0x3F, 0x7F, 0x8D, 0x48, 0x91, 0x41, 0x7F, 0x8A, 0x38, 0x81, 0x41, 0x7F, 0x87, 0x48, 0x91, 0x41, 0x7F, 0x85, 0x18, 0x81, 0x41, 0x7F, 0x68, 0x91, 0x3F, 0x7F, 0x85, 0x18, 0x81, 0x3F, 0x7F, 0x81, 0xC0, 0x68, 0x91, 0x3C, 0x7F, 0x40, 0x81, 0x3C, 0x7F, 0x81, 0x00, 0x91, 0x3E, 0x7F, 0x40, 0x81, 0x3E, 0x7F, 0x81, 0x00, 0x91, 0x3F, 0x7F, 0x40, 0x81, 0x3F, 0x7F, 0x81, 0x00, 0x91, 0x41, 0x7F, 0x40, 0x81, 0x41, 0x7F, 0x81, 0x00, 0x91, 0x43, 0x7F, 0x00, 0x91, 0x43, 0x7F, 0x00, 0x91, 0x43, 0x7F, 0x89, 0x78, 0x81, 0x43, 0x7F, 0x40, 0x81, 0x43, 0x7F, 0x00, 0x81, 0x43, 0x7F, 0x99, 0x48, 0x91, 0x43, 0x7F, 0x00, 0x91, 0x43, 0x7F, 0x82, 0x48, 0x81, 0x43, 0x7F, 0x00, 0x81, 0x43, 0x7F, 0x38, 0x91, 0x45, 0x7F, 0x00, 0x91, 0x45, 0x7F, 0x85, 0x18, 0x81, 0x45, 0x7F, 0x00, 0x81, 0x45, 0x7F, 0x68, 0x91, 0x46, 0x7F, 0x00, 0x91, 0x46, 0x7F, 0x82, 0x48, 0x81, 0x46, 0x7F, 0x00, 0x81, 0x46, 0x7F, 0x38, 0x91, 0x3F, 0x7F, 0x00, 0x91, 0x3F, 0x7F, 0x8A, 0x38, 0x81, 0x3F, 0x7F, 0x00, 0x81, 0x3F, 0x7F, 0x8D, 0x48, 0x91, 0x41, 0x7F, 0x00, 0x91, 0x41, 0x7F, 0x8A, 0x38, 0x81, 0x41, 0x7F, 0x00, 0x81, 0x41, 0x7F, 0x87, 0x48, 0x91, 0x41, 0x7F, 0x00, 0x91, 0x41, 0x7F, 0x85, 0x18, 0x81, 0x41, 0x7F, 0x00, 0x81, 0x41, 0x7F, 0x68, 0x91, 0x43, 0x7F, 0x00, 0x91, 0x43, 0x7F, 0x8A, 0x38, 0x81, 0x43, 0x7F, 0x00, 0x81, 0x43, 0x7F, 0x99, 0x48, 0x91, 0x43, 0x7F, 0x00, 0x91, 0x43, 0x7F, 0x82, 0x48, 0x81, 0x43, 0x7F, 0x00, 0x81, 0x43, 0x7F, 0x38, 0x91, 0x45, 0x7F, 0x00, 0x91, 0x45, 0x7F, 0x85, 0x18, 0x81, 0x45, 0x7F, 0x00, 0x81, 0x45, 0x7F, 0x68, 0x91, 0x46, 0x7F, 0x00, 0x91, 0x46, 0x7F, 0x82, 0x48, 0x81, 0x46, 0x7F, 0x00, 0x81, 0x46, 0x7F, 0x38, 0x91, 0x3F, 0x7F, 0x00, 0x91, 0x3F, 0x7F, 0x8A, 0x38, 0x81, 0x3F, 0x7F, 0x00, 0x81, 0x3F, 0x7F, 0x8D, 0x48, 0x91, 0x41, 0x7F, 0x00, 0x91, 0x41, 0x7F, 0x8A, 0x38, 0x81, 0x41, 0x7F, 0x00, 0x81, 0x41, 0x7F, 0x87, 0x48, 0x91, 0x41, 0x7F, 0x00, 0x91, 0x41, 0x7F, 0x85, 0x18, 0x81, 0x41, 0x7F, 0x00, 0x81, 0x41, 0x7F, 0x68, 0x91, 0x3F, 0x7F, 0x00, 0x91, 0x3F, 0x7F, 0x85, 0x18, 0x81, 0x3F, 0x7F, 0x00, 0x81, 0x3F, 0x7F, 0x81, 0x9F, 0x58, 0xB1, 0x07, 0x7F, 0x00, 0xFF, 0x2F, 0x00, 0x4D, 0x54, 0x72, 0x6B, 0x00, 0x00, 0x0D, 0x0C, 0x00, 0xFF, 0x03, 0x16, 0x53, 0x65, 0x71, 0x75, 0x65, 0x6E, 0x63, 0x65, 0x64, 0x20, 0x62, 0x79, 0x20, 0x47, 0x69, 0x47, 0x61, 0x48, 0x65, 0x52, 0x54, 0x5A, 0x00, 0xB2, 0x00, 0x00, 0x00, 0xC2, 0x1A, 0x00, 0xB2, 0x0A, 0x4B, 0x00, 0xB2, 0x5B, 0x79, 0x00, 0xB2, 0x5D, 0x3A, 0x00, 0xFF, 0x59, 0x02, 0xFE, 0x00, 0x81, 0xBF, 0x68, 0xB2, 0x07, 0x7F, 0x18, 0x92, 0x1F, 0x7F, 0x82, 0x48, 0x82, 0x1F, 0x7F, 0x38, 0x92, 0x1F, 0x7F, 0x82, 0x48, 0x82, 0x1F, 0x7F, 0x38, 0x92, 0x1F, 0x7F, 0x82, 0x48, 0x82, 0x1F, 0x7F, 0x38, 0x92, 0x1F, 0x7F, 0x82, 0x48, 0x82, 0x1F, 0x7F, 0x38, 0x92, 0x1F, 0x7F, 0x82, 0x48, 0x82, 0x1F, 0x7F, 0x38, 0x92, 0x1F, 0x7F, 0x82, 0x48, 0x82, 0x1F, 0x7F, 0x38, 0x92, 0x1F, 0x7F, 0x82, 0x48, 0x82, 0x1F, 0x7F, 0x38, 0x92, 0x1F, 0x7F, 0x82, 0x48, 0x82, 0x1F, 0x7F, 0x38, 0x92, 0x1F, 0x7F, 0x82, 0x48, 0x82, 0x1F, 0x7F, 0x38, 0x92, 0x1F, 0x7F, 0x82, 0x48, 0x82, 0x1F, 0x7F, 0x38, 0x92, 0x1F, 0x7F, 0x82, 0x48, 0x82, 0x1F, 0x7F, 0x38, 0x92, 0x1F, 0x7F, 0x82, 0x48, 0x82, 0x1F, 0x7F, 0x38, 0x92, 0x1F, 0x7F, 0x82, 0x48, 0x82, 0x1F, 0x7F, 0x38, 0x92, 0x1F, 0x7F, 0x82, 0x48, 0x82, 0x1F, 0x7F, 0x38, 0x92, 0x1F, 0x7F, 0x82, 0x48, 0x82, 0x1F, 0x7F, 0x38, 0x92, 0x1F, 0x7F, 0x82, 0x48, 0x82, 0x1F, 0x7F, 0x38, 0x92, 0x1F, 0x7F, 0x82, 0x48, 0x82, 0x1F, 0x7F, 0x38, 0x92, 0x1F, 0x7F, 0x82, 0x48, 0x82, 0x1F, 0x7F, 0x38, 0x92, 0x1F, 0x7F, 0x82, 0x48, 0x82, 0x1F, 0x7F, 0x38, 0x92, 0x1F, 0x7F, 0x82, 0x48, 0x82, 0x1F, 0x7F, 0x38, 0x92, 0x1F, 0x7F, 0x82, 0x48, 0x82, 0x1F, 0x7F, 0x38, 0x92, 0x1F, 0x7F, 0x82, 0x48, 0x82, 0x1F, 0x7F, 0x38, 0x92, 0x1F, 0x7F, 0x82, 0x48, 0x82, 0x1F, 0x7F, 0x38, 0x92, 0x1F, 0x7F, 0x82, 0x48, 0x82, 0x1F, 0x7F, 0x38, 0x92, 0x1F, 0x7F, 0x82, 0x48, 0x82, 0x1F, 0x7F, 0x38, 0x92, 0x1F, 0x7F, 0x82, 0x48, 0x82, 0x1F, 0x7F, 0x38, 0x92, 0x1F, 0x7F, 0x82, 0x48, 0x82, 0x1F, 0x7F, 0x38, 0x92, 0x1F, 0x7F, 0x82, 0x48, 0x82, 0x1F, 0x7F, 0x38, 0x92, 0x1F, 0x7F, 0x82, 0x48, 0x82, 0x1F, 0x7F, 0x38, 0x92, 0x1F, 0x7F, 0x82, 0x48, 0x82, 0x1F, 0x7F, 0x38, 0x92, 0x1F, 0x7F, 0x82, 0x48, 0x82, 0x1F, 0x7F, 0x38, 0x92, 0x1F, 0x7F, 0x82, 0x48, 0x82, 0x1F, 0x7F, 0x38, 0x92, 0x1F, 0x7F, 0x82, 0x48, 0x82, 0x1F, 0x7F, 0x38, 0x92, 0x1F, 0x7F, 0x82, 0x48, 0x82, 0x1F, 0x7F, 0x38, 0x92, 0x1F, 0x7F, 0x82, 0x48, 0x82, 0x1F, 0x7F, 0x38, 0x92, 0x1F, 0x7F, 0x82, 0x48, 0x82, 0x1F, 0x7F, 0x38, 0x92, 0x1F, 0x7F, 0x82, 0x48, 0x82, 0x1F, 0x7F, 0x38, 0x92, 0x1F, 0x7F, 0x82, 0x48, 0x82, 0x1F, 0x7F, 0x38, 0x92, 0x1F, 0x7F, 0x82, 0x48, 0x82, 0x1F, 0x7F, 0x38, 0x92, 0x1F, 0x7F, 0x82, 0x48, 0x82, 0x1F, 0x7F, 0x38, 0x92, 0x1F, 0x7F, 0x82, 0x48, 0x82, 0x1F, 0x7F, 0x38, 0x92, 0x1F, 0x7F, 0x82, 0x48, 0x82, 0x1F, 0x7F, 0x38, 0x92, 0x1F, 0x7F, 0x82, 0x48, 0x82, 0x1F, 0x7F, 0x38, 0x92, 0x1F, 0x7F, 0x82, 0x48, 0x82, 0x1F, 0x7F, 0x38, 0x92, 0x1F, 0x7F, 0x82, 0x48, 0x82, 0x1F, 0x7F, 0x38, 0x92, 0x21, 0x64, 0x84, 0x00, 0x82, 0x21, 0x40, 0x82, 0x00, 0x92, 0x22, 0x64, 0x82, 0x00, 0x82, 0x22, 0x40, 0x81, 0x00, 0x92, 0x27, 0x64, 0x82, 0x00, 0x82, 0x27, 0x40, 0x81, 0x00, 0x92, 0x27, 0x64, 0x82, 0x00, 0x82, 0x27, 0x40, 0x81, 0x00, 0x92, 0x27, 0x64, 0x82, 0x00, 0x82, 0x27, 0x40, 0x81, 0x00, 0x92, 0x27, 0x64, 0x82, 0x00, 0x82, 0x27, 0x40, 0x81, 0x00, 0x92, 0x27, 0x7F, 0x82, 0x48, 0x82, 0x27, 0x7F, 0x38, 0x92, 0x22, 0x7F, 0x82, 0x48, 0x82, 0x22, 0x7F, 0x38, 0x92, 0x1F, 0x7F, 0x82, 0x48, 0x82, 0x1F, 0x7F, 0x38, 0x92, 0x1B, 0x7F, 0x82, 0x48, 0x82, 0x1B, 0x7F, 0x38, 0x92, 0x1D, 0x7F, 0x82, 0x48, 0x82, 0x1D, 0x7F, 0x38, 0x92, 0x1D, 0x7F, 0x82, 0x48, 0x82, 0x1D, 0x7F, 0x38, 0x92, 0x1D, 0x7F, 0x82, 0x48, 0x82, 0x1D, 0x7F, 0x38, 0x92, 0x1D, 0x7F, 0x82, 0x48, 0x82, 0x1D, 0x7F, 0x38, 0x92, 0x1D, 0x7F, 0x82, 0x48, 0x82, 0x1D, 0x7F, 0x38, 0x92, 0x1D, 0x7F, 0x82, 0x48, 0x82, 0x1D, 0x7F, 0x38, 0x92, 0x1D, 0x7F, 0x82, 0x48, 0x82, 0x1D, 0x7F, 0x38, 0x92, 0x1D, 0x7F, 0x82, 0x48, 0x82, 0x1D, 0x7F, 0x38, 0x92, 0x1F, 0x7F, 0x82, 0x48, 0x82, 0x1F, 0x7F, 0x38, 0x92, 0x1F, 0x7F, 0x82, 0x48, 0x82, 0x1F, 0x7F, 0x38, 0x92, 0x1F, 0x7F, 0x82, 0x48, 0x82, 0x1F, 0x7F, 0x38, 0x92, 0x1F, 0x7F, 0x82, 0x48, 0x82, 0x1F, 0x7F, 0x38, 0x92, 0x1F, 0x7F, 0x82, 0x48, 0x82, 0x1F, 0x7F, 0x38, 0x92, 0x1F, 0x7F, 0x82, 0x48, 0x82, 0x1F, 0x7F, 0x38, 0x92, 0x1F, 0x7F, 0x82, 0x48, 0x82, 0x1F, 0x7F, 0x38, 0x92, 0x1F, 0x7F, 0x82, 0x48, 0x82, 0x1F, 0x7F, 0x38, 0x92, 0x1F, 0x7F, 0x82, 0x48, 0x82, 0x1F, 0x7F, 0x38, 0x92, 0x1F, 0x7F, 0x82, 0x48, 0x82, 0x1F, 0x7F, 0x38, 0x92, 0x1F, 0x7F, 0x82, 0x48, 0x82, 0x1F, 0x7F, 0x38, 0x92, 0x1F, 0x7F, 0x82, 0x48, 0x82, 0x1F, 0x7F, 0x38, 0x92, 0x1F, 0x7F, 0x82, 0x48, 0x82, 0x1F, 0x7F, 0x38, 0x92, 0x21, 0x64, 0x84, 0x00, 0x82, 0x21, 0x40, 0x82, 0x00, 0x92, 0x22, 0x64, 0x82, 0x00, 0x82, 0x22, 0x40, 0x81, 0x00, 0x92, 0x27, 0x64, 0x82, 0x00, 0x82, 0x27, 0x40, 0x81, 0x00, 0x92, 0x27, 0x64, 0x82, 0x00, 0x82, 0x27, 0x40, 0x81, 0x00, 0x92, 0x27, 0x64, 0x82, 0x00, 0x82, 0x27, 0x40, 0x81, 0x00, 0x92, 0x27, 0x64, 0x82, 0x00, 0x82, 0x27, 0x40, 0x81, 0x00, 0x92, 0x27, 0x7F, 0x82, 0x48, 0x82, 0x27, 0x7F, 0x38, 0x92, 0x22, 0x7F, 0x82, 0x48, 0x82, 0x22, 0x7F, 0x38, 0x92, 0x1F, 0x7F, 0x82, 0x48, 0x82, 0x1F, 0x7F, 0x38, 0x92, 0x1B, 0x7F, 0x82, 0x48, 0x82, 0x1B, 0x7F, 0x38, 0x92, 0x1D, 0x7F, 0x82, 0x48, 0x82, 0x1D, 0x7F, 0x38, 0x92, 0x1D, 0x7F, 0x82, 0x48, 0x82, 0x1D, 0x7F, 0x38, 0x92, 0x1D, 0x7F, 0x82, 0x48, 0x82, 0x1D, 0x7F, 0x38, 0x92, 0x1D, 0x7F, 0x82, 0x48, 0x82, 0x1D, 0x7F, 0x38, 0x92, 0x1D, 0x7F, 0x82, 0x38, 0x82, 0x1D, 0x7F, 0x48, 0x92, 0x1D, 0x7F, 0x82, 0x38, 0x82, 0x1D, 0x7F, 0x48, 0x92, 0x1D, 0x7F, 0x82, 0x38, 0x82, 0x1D, 0x7F, 0x48, 0x92, 0x1D, 0x7F, 0x82, 0x38, 0x82, 0x1D, 0x7F, 0x48, 0x92, 0x1B, 0x64, 0x88, 0x00, 0x82, 0x1B, 0x40, 0x84, 0x00, 0x92, 0x1B, 0x64, 0x82, 0x00, 0x82, 0x1B, 0x40, 0x81, 0x00, 0x92, 0x1B, 0x64, 0x82, 0x00, 0x82, 0x1B, 0x40, 0x81, 0x00, 0x92, 0x1B, 0x64, 0x82, 0x00, 0x82, 0x1B, 0x40, 0x81, 0x00, 0x92, 0x1B, 0x64, 0x82, 0x00, 0x82, 0x1B, 0x40, 0x81, 0x00, 0x92, 0x1B, 0x7F, 0x82, 0x38, 0x82, 0x1B, 0x7F, 0x48, 0x92, 0x1B, 0x7F, 0x82, 0x38, 0x82, 0x1B, 0x7F, 0x48, 0x92, 0x1B, 0x7F, 0x82, 0x38, 0x82, 0x1B, 0x7F, 0x48, 0x92, 0x1B, 0x7F, 0x82, 0x38, 0x82, 0x1B, 0x7F, 0x48, 0x92, 0x1B, 0x7F, 0x82, 0x38, 0x82, 0x1B, 0x7F, 0x48, 0x92, 0x1B, 0x7F, 0x82, 0x38, 0x82, 0x1B, 0x7F, 0x48, 0x92, 0x1B, 0x7F, 0x82, 0x38, 0x82, 0x1B, 0x7F, 0x48, 0x92, 0x1B, 0x7F, 0x82, 0x38, 0x82, 0x1B, 0x7F, 0x48, 0x92, 0x1A, 0x7F, 0x82, 0x38, 0x82, 0x1A, 0x7F, 0x48, 0x92, 0x1A, 0x7F, 0x82, 0x38, 0x82, 0x1A, 0x7F, 0x48, 0x92, 0x1A, 0x7F, 0x82, 0x38, 0x82, 0x1A, 0x7F, 0x48, 0x92, 0x1A, 0x7F, 0x82, 0x38, 0x82, 0x1A, 0x7F, 0x48, 0x92, 0x1A, 0x7F, 0x82, 0x38, 0x82, 0x1A, 0x7F, 0x48, 0x92, 0x1A, 0x7F, 0x82, 0x38, 0x82, 0x1A, 0x7F, 0x48, 0x92, 0x1A, 0x7F, 0x82, 0x38, 0x82, 0x1A, 0x7F, 0x48, 0x92, 0x1A, 0x7F, 0x82, 0x38, 0x82, 0x1A, 0x7F, 0x48, 0x92, 0x16, 0x7F, 0x82, 0x38, 0x82, 0x16, 0x7F, 0x48, 0x92, 0x16, 0x7F, 0x82, 0x38, 0x82, 0x16, 0x7F, 0x48, 0x92, 0x16, 0x7F, 0x82, 0x38, 0x82, 0x16, 0x7F, 0x48, 0x92, 0x16, 0x7F, 0x82, 0x38, 0x82, 0x16, 0x7F, 0x48, 0x92, 0x16, 0x7F, 0x82, 0x38, 0x82, 0x16, 0x7F, 0x48, 0x92, 0x16, 0x7F, 0x82, 0x38, 0x82, 0x16, 0x7F, 0x48, 0x92, 0x16, 0x7F, 0x82, 0x38, 0x82, 0x16, 0x7F, 0x48, 0x92, 0x16, 0x7F, 0x82, 0x38, 0x82, 0x16, 0x7F, 0x48, 0x92, 0x1B, 0x7F, 0x82, 0x38, 0x82, 0x1B, 0x7F, 0x48, 0x92, 0x1B, 0x7F, 0x82, 0x38, 0x82, 0x1B, 0x7F, 0x48, 0x92, 0x1B, 0x7F, 0x82, 0x38, 0x82, 0x1B, 0x7F, 0x48, 0x92, 0x1B, 0x7F, 0x82, 0x38, 0x82, 0x1B, 0x7F, 0x48, 0x92, 0x1B, 0x7F, 0x82, 0x38, 0x82, 0x1B, 0x7F, 0x48, 0x92, 0x1B, 0x7F, 0x82, 0x38, 0x82, 0x1B, 0x7F, 0x48, 0x92, 0x1B, 0x7F, 0x82, 0x38, 0x82, 0x1B, 0x7F, 0x48, 0x92, 0x1B, 0x7F, 0x82, 0x38, 0x82, 0x1B, 0x7F, 0x48, 0x92, 0x1D, 0x7F, 0x82, 0x38, 0x82, 0x1D, 0x7F, 0x48, 0x92, 0x1D, 0x7F, 0x82, 0x38, 0x82, 0x1D, 0x7F, 0x48, 0x92, 0x1D, 0x7F, 0x82, 0x38, 0x82, 0x1D, 0x7F, 0x48, 0x92, 0x1D, 0x7F, 0x82, 0x38, 0x82, 0x1D, 0x7F, 0x48, 0x92, 0x1D, 0x7F, 0x82, 0x38, 0x82, 0x1D, 0x7F, 0x48, 0x92, 0x1D, 0x7F, 0x82, 0x38, 0x82, 0x1D, 0x7F, 0x48, 0x92, 0x1D, 0x7F, 0x82, 0x38, 0x82, 0x1D, 0x7F, 0x48, 0x92, 0x1D, 0x7F, 0x82, 0x38, 0x82, 0x1D, 0x7F, 0x48, 0x92, 0x1E, 0x7F, 0x82, 0x38, 0x82, 0x1E, 0x7F, 0x48, 0x92, 0x1E, 0x7F, 0x82, 0x38, 0x82, 0x1E, 0x7F, 0x48, 0x92, 0x1E, 0x7F, 0x82, 0x38, 0x82, 0x1E, 0x7F, 0x48, 0x92, 0x1E, 0x7F, 0x82, 0x38, 0x82, 0x1E, 0x7F, 0x48, 0x92, 0x1E, 0x7F, 0x82, 0x38, 0x82, 0x1E, 0x7F, 0x48, 0x92, 0x1E, 0x7F, 0x82, 0x38, 0x82, 0x1E, 0x7F, 0x48, 0x92, 0x1E, 0x7F, 0x82, 0x38, 0x82, 0x1E, 0x7F, 0x48, 0x92, 0x1E, 0x7F, 0x82, 0x38, 0x82, 0x1E, 0x7F, 0x48, 0x92, 0x1A, 0x7F, 0x81, 0x48, 0xE2, 0x75, 0x43, 0x18, 0xE2, 0x6A, 0x47, 0x18, 0xE2, 0x5F, 0x4B, 0x18, 0xE2, 0x54, 0x4F, 0x18, 0xE2, 0x49, 0x53, 0x18, 0xE2, 0x3E, 0x57, 0x18, 0xE2, 0x33, 0x5B, 0x18, 0xE2, 0x28, 0x5F, 0x18, 0xE2, 0x1D, 0x63, 0x82, 0x70, 0xE2, 0x00, 0x40, 0x08, 0x92, 0x1D, 0x7F, 0x81, 0x18, 0x82, 0x1D, 0x7F, 0x20, 0x82, 0x1A, 0x7F, 0x81, 0x48, 0x92, 0x1B, 0x7F, 0x84, 0x40, 0xE2, 0x75, 0x43, 0x18, 0xE2, 0x6A, 0x47, 0x18, 0xE2, 0x5F, 0x4B, 0x08, 0x82, 0x1B, 0x7F, 0x10, 0xE2, 0x54, 0x4F, 0x18, 0xE2, 0x49, 0x53, 0x18, 0xE2, 0x3E, 0x57, 0x18, 0xE2, 0x33, 0x5B, 0x18, 0xE2, 0x28, 0x5F, 0x08, 0xE2, 0x00, 0x40, 0x10, 0x92, 0x1E, 0x7F, 0x81, 0x18, 0x82, 0x1E, 0x7F, 0x81, 0x68, 0x92, 0x1D, 0x7F, 0x84, 0x78, 0x82, 0x1D, 0x7F, 0x81, 0x08, 0x92, 0x1F, 0x7F, 0x81, 0x18, 0x82, 0x1F, 0x7F, 0x81, 0x68, 0x92, 0x1E, 0x7F, 0x84, 0x78, 0x82, 0x1E, 0x7F, 0x81, 0x08, 0x92, 0x21, 0x7F, 0x81, 0x18, 0x82, 0x21, 0x7F, 0x81, 0x68, 0x92, 0x1F, 0x7F, 0x00, 0xB2, 0x07, 0x7F, 0x82, 0x48, 0x82, 0x1F, 0x7F, 0x38, 0x92, 0x1F, 0x7F, 0x00, 0x92, 0x1F, 0x7F, 0x82, 0x48, 0x82, 0x1F, 0x7F, 0x00, 0x82, 0x1F, 0x7F, 0x38, 0x92, 0x1F, 0x7F, 0x00, 0x92, 0x1F, 0x7F, 0x82, 0x48, 0x82, 0x1F, 0x7F, 0x00, 0x82, 0x1F, 0x7F, 0x38, 0x92, 0x1F, 0x7F, 0x00, 0x92, 0x1F, 0x7F, 0x82, 0x48, 0x82, 0x1F, 0x7F, 0x00, 0x82, 0x1F, 0x7F, 0x38, 0x92, 0x1F, 0x7F, 0x00, 0x92, 0x1F, 0x7F, 0x82, 0x48, 0x82, 0x1F, 0x7F, 0x00, 0x82, 0x1F, 0x7F, 0x38, 0x92, 0x1F, 0x7F, 0x00, 0x92, 0x1F, 0x7F, 0x82, 0x48, 0x82, 0x1F, 0x7F, 0x00, 0x82, 0x1F, 0x7F, 0x38, 0x92, 0x1F, 0x7F, 0x00, 0x92, 0x1F, 0x7F, 0x82, 0x48, 0x82, 0x1F, 0x7F, 0x00, 0x82, 0x1F, 0x7F, 0x38, 0x92, 0x1F, 0x7F, 0x00, 0x92, 0x1F, 0x7F, 0x82, 0x48, 0x82, 0x1F, 0x7F, 0x00, 0x82, 0x1F, 0x7F, 0x38, 0x92, 0x1F, 0x7F, 0x00, 0x92, 0x1F, 0x7F, 0x82, 0x48, 0x82, 0x1F, 0x7F, 0x00, 0x82, 0x1F, 0x7F, 0x38, 0x92, 0x1F, 0x7F, 0x00, 0x92, 0x1F, 0x7F, 0x82, 0x48, 0x82, 0x1F, 0x7F, 0x00, 0x82, 0x1F, 0x7F, 0x38, 0x92, 0x1F, 0x7F, 0x00, 0x92, 0x1F, 0x7F, 0x82, 0x48, 0x82, 0x1F, 0x7F, 0x00, 0x82, 0x1F, 0x7F, 0x38, 0x92, 0x1F, 0x7F, 0x00, 0x92, 0x1F, 0x7F, 0x82, 0x48, 0x82, 0x1F, 0x7F, 0x00, 0x82, 0x1F, 0x7F, 0x38, 0x92, 0x1F, 0x7F, 0x82, 0x48, 0x82, 0x1F, 0x7F, 0x38, 0x92, 0x21, 0x64, 0x84, 0x00, 0x82, 0x21, 0x40, 0x82, 0x00, 0x92, 0x22, 0x64, 0x82, 0x00, 0x82, 0x22, 0x40, 0x81, 0x00, 0x92, 0x27, 0x64, 0x82, 0x00, 0x82, 0x27, 0x40, 0x81, 0x00, 0x92, 0x27, 0x64, 0x82, 0x00, 0x82, 0x27, 0x40, 0x81, 0x00, 0x92, 0x27, 0x64, 0x82, 0x00, 0x82, 0x27, 0x40, 0x81, 0x00, 0x92, 0x27, 0x64, 0x82, 0x00, 0x82, 0x27, 0x40, 0x81, 0x00, 0x92, 0x27, 0x7F, 0x82, 0x48, 0x82, 0x27, 0x7F, 0x38, 0x92, 0x22, 0x7F, 0x82, 0x48, 0x82, 0x22, 0x7F, 0x38, 0x92, 0x1F, 0x7F, 0x82, 0x48, 0x82, 0x1F, 0x7F, 0x38, 0x92, 0x1B, 0x7F, 0x82, 0x48, 0x82, 0x1B, 0x7F, 0x38, 0x92, 0x1D, 0x7F, 0x00, 0x92, 0x1D, 0x7F, 0x00, 0x92, 0x1D, 0x7F, 0x82, 0x48, 0x82, 0x1D, 0x7F, 0x00, 0x82, 0x1D, 0x7F, 0x00, 0x82, 0x1D, 0x7F, 0x38, 0x92, 0x1D, 0x7F, 0x00, 0x92, 0x1D, 0x7F, 0x00, 0x92, 0x1D, 0x7F, 0x82, 0x48, 0x82, 0x1D, 0x7F, 0x00, 0x82, 0x1D, 0x7F, 0x00, 0x82, 0x1D, 0x7F, 0x38, 0x92, 0x1D, 0x7F, 0x00, 0x92, 0x1D, 0x7F, 0x00, 0x92, 0x1D, 0x7F, 0x82, 0x48, 0x82, 0x1D, 0x7F, 0x00, 0x82, 0x1D, 0x7F, 0x00, 0x82, 0x1D, 0x7F, 0x38, 0x92, 0x1D, 0x7F, 0x00, 0x92, 0x1D, 0x7F, 0x00, 0x92, 0x1D, 0x7F, 0x82, 0x48, 0x82, 0x1D, 0x7F, 0x00, 0x82, 0x1D, 0x7F, 0x00, 0x82, 0x1D, 0x7F, 0x38, 0x92, 0x1D, 0x7F, 0x00, 0x92, 0x1D, 0x7F, 0x00, 0x92, 0x1D, 0x7F, 0x82, 0x48, 0x82, 0x1D, 0x7F, 0x00, 0x82, 0x1D, 0x7F, 0x00, 0x82, 0x1D, 0x7F, 0x38, 0x92, 0x1D, 0x7F, 0x00, 0x92, 0x1D, 0x7F, 0x00, 0x92, 0x1D, 0x7F, 0x82, 0x48, 0x82, 0x1D, 0x7F, 0x00, 0x82, 0x1D, 0x7F, 0x00, 0x82, 0x1D, 0x7F, 0x38, 0x92, 0x1D, 0x7F, 0x00, 0x92, 0x1D, 0x7F, 0x00, 0x92, 0x1D, 0x7F, 0x82, 0x48, 0x82, 0x1D, 0x7F, 0x00, 0x82, 0x1D, 0x7F, 0x00, 0x82, 0x1D, 0x7F, 0x38, 0x92, 0x1D, 0x7F, 0x00, 0x92, 0x1D, 0x7F, 0x00, 0x92, 0x1D, 0x7F, 0x82, 0x48, 0x82, 0x1D, 0x7F, 0x00, 0x82, 0x1D, 0x7F, 0x00, 0x82, 0x1D, 0x7F, 0x38, 0x92, 0x1F, 0x7F, 0x00, 0x92, 0x1F, 0x7F, 0x82, 0x48, 0x82, 0x1F, 0x7F, 0x00, 0x82, 0x1F, 0x7F, 0x38, 0x92, 0x1F, 0x7F, 0x00, 0x92, 0x1F, 0x7F, 0x82, 0x48, 0x82, 0x1F, 0x7F, 0x00, 0x82, 0x1F, 0x7F, 0x38, 0x92, 0x1F, 0x7F, 0x00, 0x92, 0x1F, 0x7F, 0x82, 0x48, 0x82, 0x1F, 0x7F, 0x00, 0x82, 0x1F, 0x7F, 0x38, 0x92, 0x1F, 0x7F, 0x00, 0x92, 0x1F, 0x7F, 0x82, 0x48, 0x82, 0x1F, 0x7F, 0x00, 0x82, 0x1F, 0x7F, 0x38, 0x92, 0x1F, 0x7F, 0x00, 0x92, 0x1F, 0x7F, 0x82, 0x48, 0x82, 0x1F, 0x7F, 0x00, 0x82, 0x1F, 0x7F, 0x38, 0x92, 0x1F, 0x7F, 0x00, 0x92, 0x1F, 0x7F, 0x82, 0x48, 0x82, 0x1F, 0x7F, 0x00, 0x82, 0x1F, 0x7F, 0x38, 0x92, 0x1F, 0x7F, 0x00, 0x92, 0x1F, 0x7F, 0x82, 0x48, 0x82, 0x1F, 0x7F, 0x00, 0x82, 0x1F, 0x7F, 0x38, 0x92, 0x1F, 0x7F, 0x00, 0x92, 0x1F, 0x7F, 0x82, 0x48, 0x82, 0x1F, 0x7F, 0x00, 0x82, 0x1F, 0x7F, 0x38, 0x92, 0x1F, 0x7F, 0x00, 0x92, 0x1F, 0x7F, 0x82, 0x48, 0x82, 0x1F, 0x7F, 0x00, 0x82, 0x1F, 0x7F, 0x38, 0x92, 0x1F, 0x7F, 0x00, 0x92, 0x1F, 0x7F, 0x82, 0x48, 0x82, 0x1F, 0x7F, 0x00, 0x82, 0x1F, 0x7F, 0x38, 0x92, 0x1F, 0x7F, 0x00, 0x92, 0x1F, 0x7F, 0x82, 0x48, 0x82, 0x1F, 0x7F, 0x00, 0x82, 0x1F, 0x7F, 0x38, 0x92, 0x1F, 0x7F, 0x00, 0x92, 0x1F, 0x7F, 0x82, 0x48, 0x82, 0x1F, 0x7F, 0x00, 0x82, 0x1F, 0x7F, 0x38, 0x92, 0x1F, 0x7F, 0x82, 0x48, 0x82, 0x1F, 0x7F, 0x38, 0x92, 0x21, 0x64, 0x84, 0x00, 0x82, 0x21, 0x40, 0x82, 0x00, 0x92, 0x22, 0x64, 0x82, 0x00, 0x82, 0x22, 0x40, 0x81, 0x00, 0x92, 0x27, 0x64, 0x82, 0x00, 0x82, 0x27, 0x40, 0x81, 0x00, 0x92, 0x27, 0x64, 0x82, 0x00, 0x82, 0x27, 0x40, 0x81, 0x00, 0x92, 0x27, 0x64, 0x82, 0x00, 0x82, 0x27, 0x40, 0x81, 0x00, 0x92, 0x27, 0x64, 0x82, 0x00, 0x82, 0x27, 0x40, 0x81, 0x00, 0x92, 0x27, 0x7F, 0x82, 0x48, 0x82, 0x27, 0x7F, 0x38, 0x92, 0x22, 0x7F, 0x82, 0x48, 0x82, 0x22, 0x7F, 0x38, 0x92, 0x1F, 0x7F, 0x82, 0x48, 0x82, 0x1F, 0x7F, 0x38, 0x92, 0x1B, 0x7F, 0x82, 0x48, 0x82, 0x1B, 0x7F, 0x38, 0x92, 0x1D, 0x7F, 0x82, 0x48, 0x82, 0x1D, 0x7F, 0x38, 0x92, 0x1D, 0x7F, 0x82, 0x48, 0x82, 0x1D, 0x7F, 0x38, 0x92, 0x1D, 0x7F, 0x82, 0x48, 0x82, 0x1D, 0x7F, 0x38, 0x92, 0x1D, 0x7F, 0x82, 0x48, 0x82, 0x1D, 0x7F, 0x38, 0x92, 0x1D, 0x7F, 0x00, 0x92, 0x1D, 0x7F, 0x00, 0x92, 0x1D, 0x7F, 0x82, 0x38, 0x82, 0x1D, 0x7F, 0x00, 0x82, 0x1D, 0x7F, 0x10, 0x82, 0x1D, 0x7F, 0x38, 0x92, 0x1D, 0x7F, 0x00, 0x92, 0x1D, 0x7F, 0x00, 0x92, 0x1D, 0x7F, 0x82, 0x38, 0x82, 0x1D, 0x7F, 0x00, 0x82, 0x1D, 0x7F, 0x10, 0x82, 0x1D, 0x7F, 0x38, 0x92, 0x1D, 0x7F, 0x00, 0x92, 0x1D, 0x7F, 0x00, 0x92, 0x1D, 0x7F, 0x82, 0x38, 0x82, 0x1D, 0x7F, 0x00, 0x82, 0x1D, 0x7F, 0x10, 0x82, 0x1D, 0x7F, 0x38, 0x92, 0x1D, 0x7F, 0x00, 0x92, 0x1D, 0x7F, 0x00, 0x92, 0x1D, 0x7F, 0x82, 0x38, 0x82, 0x1D, 0x7F, 0x00, 0x82, 0x1D, 0x7F, 0x10, 0x82, 0x1D, 0x7F, 0x38, 0x92, 0x1B, 0x7F, 0x00, 0x92, 0x1B, 0x7F, 0x95, 0x78, 0x82, 0x1B, 0x7F, 0x00, 0x82, 0x1B, 0x7F, 0x82, 0x08, 0x92, 0x1B, 0x7F, 0x00, 0x92, 0x1B, 0x7F, 0x82, 0x38, 0x82, 0x1B, 0x7F, 0x00, 0x82, 0x1B, 0x7F, 0x48, 0x92, 0x1B, 0x7F, 0x00, 0x92, 0x1B, 0x7F, 0x82, 0x38, 0x82, 0x1B, 0x7F, 0x00, 0x82, 0x1B, 0x7F, 0x48, 0x92, 0x1B, 0x7F, 0x00, 0x92, 0x1B, 0x7F, 0x82, 0x38, 0x82, 0x1B, 0x7F, 0x00, 0x82, 0x1B, 0x7F, 0x48, 0x92, 0x1B, 0x7F, 0x00, 0x92, 0x1B, 0x7F, 0x82, 0x38, 0x82, 0x1B, 0x7F, 0x00, 0x82, 0x1B, 0x7F, 0x48, 0x92, 0x1B, 0x7F, 0x00, 0x92, 0x1B, 0x7F, 0x82, 0x38, 0x82, 0x1B, 0x7F, 0x00, 0x82, 0x1B, 0x7F, 0x48, 0x92, 0x1B, 0x7F, 0x00, 0x92, 0x1B, 0x7F, 0x82, 0x38, 0x82, 0x1B, 0x7F, 0x00, 0x82, 0x1B, 0x7F, 0x48, 0x92, 0x1B, 0x7F, 0x00, 0x92, 0x1B, 0x7F, 0x82, 0x38, 0x82, 0x1B, 0x7F, 0x00, 0x82, 0x1B, 0x7F, 0x48, 0x92, 0x1B, 0x7F, 0x00, 0x92, 0x1B, 0x7F, 0x82, 0x38, 0x82, 0x1B, 0x7F, 0x00, 0x82, 0x1B, 0x7F, 0x48, 0x92, 0x1A, 0x7F, 0x00, 0x92, 0x1A, 0x7F, 0x82, 0x38, 0x82, 0x1A, 0x7F, 0x00, 0x82, 0x1A, 0x7F, 0x48, 0x92, 0x1A, 0x7F, 0x00, 0x92, 0x1A, 0x7F, 0x82, 0x38, 0x82, 0x1A, 0x7F, 0x00, 0x82, 0x1A, 0x7F, 0x48, 0x92, 0x1A, 0x7F, 0x00, 0x92, 0x1A, 0x7F, 0x82, 0x38, 0x82, 0x1A, 0x7F, 0x00, 0x82, 0x1A, 0x7F, 0x48, 0x92, 0x1A, 0x7F, 0x00, 0x92, 0x1A, 0x7F, 0x82, 0x38, 0x82, 0x1A, 0x7F, 0x00, 0x82, 0x1A, 0x7F, 0x48, 0x92, 0x1A, 0x7F, 0x00, 0x92, 0x1A, 0x7F, 0x82, 0x38, 0x82, 0x1A, 0x7F, 0x00, 0x82, 0x1A, 0x7F, 0x48, 0x92, 0x1A, 0x7F, 0x00, 0x92, 0x1A, 0x7F, 0x82, 0x38, 0x82, 0x1A, 0x7F, 0x00, 0x82, 0x1A, 0x7F, 0x48, 0x92, 0x1A, 0x7F, 0x00, 0x92, 0x1A, 0x7F, 0x82, 0x38, 0x82, 0x1A, 0x7F, 0x00, 0x82, 0x1A, 0x7F, 0x48, 0x92, 0x1A, 0x7F, 0x00, 0x92, 0x1A, 0x7F, 0x82, 0x38, 0x82, 0x1A, 0x7F, 0x00, 0x82, 0x1A, 0x7F, 0x48, 0x92, 0x16, 0x7F, 0x00, 0x92, 0x16, 0x7F, 0x82, 0x38, 0x82, 0x16, 0x7F, 0x00, 0x82, 0x16, 0x7F, 0x48, 0x92, 0x16, 0x7F, 0x00, 0x92, 0x16, 0x7F, 0x82, 0x38, 0x82, 0x16, 0x7F, 0x00, 0x82, 0x16, 0x7F, 0x48, 0x92, 0x16, 0x7F, 0x00, 0x92, 0x16, 0x7F, 0x82, 0x38, 0x82, 0x16, 0x7F, 0x00, 0x82, 0x16, 0x7F, 0x48, 0x92, 0x16, 0x7F, 0x00, 0x92, 0x16, 0x7F, 0x82, 0x38, 0x82, 0x16, 0x7F, 0x00, 0x82, 0x16, 0x7F, 0x48, 0x92, 0x16, 0x7F, 0x00, 0x92, 0x16, 0x7F, 0x82, 0x38, 0x82, 0x16, 0x7F, 0x00, 0x82, 0x16, 0x7F, 0x48, 0x92, 0x16, 0x7F, 0x00, 0x92, 0x16, 0x7F, 0x82, 0x38, 0x82, 0x16, 0x7F, 0x00, 0x82, 0x16, 0x7F, 0x48, 0x92, 0x16, 0x7F, 0x00, 0x92, 0x16, 0x7F, 0x82, 0x38, 0x82, 0x16, 0x7F, 0x00, 0x82, 0x16, 0x7F, 0x48, 0x92, 0x16, 0x7F, 0x00, 0x92, 0x16, 0x7F, 0x82, 0x38, 0x82, 0x16, 0x7F, 0x00, 0x82, 0x16, 0x7F, 0x48, 0x92, 0x1B, 0x7F, 0x00, 0x92, 0x1B, 0x7F, 0x82, 0x38, 0x82, 0x1B, 0x7F, 0x00, 0x82, 0x1B, 0x7F, 0x48, 0x92, 0x1B, 0x7F, 0x00, 0x92, 0x1B, 0x7F, 0x82, 0x38, 0x82, 0x1B, 0x7F, 0x00, 0x82, 0x1B, 0x7F, 0x48, 0x92, 0x1B, 0x7F, 0x00, 0x92, 0x1B, 0x7F, 0x82, 0x38, 0x82, 0x1B, 0x7F, 0x00, 0x82, 0x1B, 0x7F, 0x48, 0x92, 0x1B, 0x7F, 0x00, 0x92, 0x1B, 0x7F, 0x82, 0x38, 0x82, 0x1B, 0x7F, 0x00, 0x82, 0x1B, 0x7F, 0x48, 0x92, 0x1B, 0x7F, 0x00, 0x92, 0x1B, 0x7F, 0x82, 0x38, 0x82, 0x1B, 0x7F, 0x00, 0x82, 0x1B, 0x7F, 0x48, 0x92, 0x1B, 0x7F, 0x00, 0x92, 0x1B, 0x7F, 0x82, 0x38, 0x82, 0x1B, 0x7F, 0x00, 0x82, 0x1B, 0x7F, 0x48, 0x92, 0x1B, 0x7F, 0x00, 0x92, 0x1B, 0x7F, 0x82, 0x38, 0x82, 0x1B, 0x7F, 0x00, 0x82, 0x1B, 0x7F, 0x48, 0x92, 0x1B, 0x7F, 0x00, 0x92, 0x1B, 0x7F, 0x82, 0x38, 0x82, 0x1B, 0x7F, 0x00, 0x82, 0x1B, 0x7F, 0x48, 0x92, 0x1D, 0x7F, 0x00, 0x92, 0x1D, 0x7F, 0x82, 0x38, 0x82, 0x1D, 0x7F, 0x00, 0x82, 0x1D, 0x7F, 0x48, 0x92, 0x1D, 0x7F, 0x00, 0x92, 0x1D, 0x7F, 0x82, 0x38, 0x82, 0x1D, 0x7F, 0x00, 0x82, 0x1D, 0x7F, 0x48, 0x92, 0x1D, 0x7F, 0x00, 0x92, 0x1D, 0x7F, 0x82, 0x38, 0x82, 0x1D, 0x7F, 0x00, 0x82, 0x1D, 0x7F, 0x48, 0x92, 0x1D, 0x7F, 0x00, 0x92, 0x1D, 0x7F, 0x82, 0x38, 0x82, 0x1D, 0x7F, 0x00, 0x82, 0x1D, 0x7F, 0x48, 0x92, 0x1D, 0x7F, 0x00, 0x92, 0x1D, 0x7F, 0x82, 0x38, 0x82, 0x1D, 0x7F, 0x00, 0x82, 0x1D, 0x7F, 0x48, 0x92, 0x1D, 0x7F, 0x00, 0x92, 0x1D, 0x7F, 0x82, 0x38, 0x82, 0x1D, 0x7F, 0x00, 0x82, 0x1D, 0x7F, 0x48, 0x92, 0x1D, 0x7F, 0x00, 0x92, 0x1D, 0x7F, 0x82, 0x38, 0x82, 0x1D, 0x7F, 0x00, 0x82, 0x1D, 0x7F, 0x48, 0x92, 0x1D, 0x7F, 0x00, 0x92, 0x1D, 0x7F, 0x82, 0x38, 0x82, 0x1D, 0x7F, 0x00, 0x82, 0x1D, 0x7F, 0x48, 0x92, 0x1E, 0x7F, 0x00, 0x92, 0x1E, 0x7F, 0x82, 0x38, 0x82, 0x1E, 0x7F, 0x00, 0x82, 0x1E, 0x7F, 0x48, 0x92, 0x1E, 0x7F, 0x00, 0x92, 0x1E, 0x7F, 0x82, 0x38, 0x82, 0x1E, 0x7F, 0x00, 0x82, 0x1E, 0x7F, 0x48, 0x92, 0x1E, 0x7F, 0x00, 0x92, 0x1E, 0x7F, 0x82, 0x38, 0x82, 0x1E, 0x7F, 0x00, 0x82, 0x1E, 0x7F, 0x48, 0x92, 0x1E, 0x7F, 0x00, 0x92, 0x1E, 0x7F, 0x82, 0x38, 0x82, 0x1E, 0x7F, 0x00, 0x82, 0x1E, 0x7F, 0x48, 0x92, 0x1E, 0x7F, 0x00, 0x92, 0x1E, 0x7F, 0x82, 0x38, 0x82, 0x1E, 0x7F, 0x00, 0x82, 0x1E, 0x7F, 0x48, 0x92, 0x1E, 0x7F, 0x00, 0x92, 0x1E, 0x7F, 0x82, 0x38, 0x82, 0x1E, 0x7F, 0x00, 0x82, 0x1E, 0x7F, 0x48, 0x92, 0x1E, 0x7F, 0x00, 0x92, 0x1E, 0x7F, 0x82, 0x38, 0x82, 0x1E, 0x7F, 0x00, 0x82, 0x1E, 0x7F, 0x48, 0x92, 0x1E, 0x7F, 0x00, 0x92, 0x1E, 0x7F, 0x82, 0x38, 0x82, 0x1E, 0x7F, 0x00, 0x82, 0x1E, 0x7F, 0x00, 0xFF, 0x2F, 0x00, 0x4D, 0x54, 0x72, 0x6B, 0x00, 0x00, 0x03, 0x65, 0x00, 0xFF, 0x03, 0x12, 0x49, 0x6E, 0x63, 0x6F, 0x6D, 0x70, 0x6C, 0x65, 0x74, 0x65, 0x20, 0x76, 0x65, 0x72, 0x73, 0x69, 0x6F, 0x6E, 0x00, 0xB3, 0x00, 0x00, 0x00, 0xC3, 0x30, 0x00, 0xB3, 0x0A, 0x3F, 0x00, 0xB3, 0x5B, 0x7B, 0x00, 0xB3, 0x5D, 0x7F, 0x00, 0xFF, 0x59, 0x02, 0xFE, 0x00, 0x83, 0xE0, 0x00, 0xB3, 0x07, 0x7F, 0x86, 0x00, 0x93, 0x4A, 0x7F, 0x84, 0x78, 0x83, 0x4A, 0x7F, 0x81, 0x08, 0x93, 0x48, 0x7F, 0x84, 0x78, 0x83, 0x48, 0x7F, 0x81, 0x08, 0x93, 0x46, 0x7F, 0x84, 0x78, 0x83, 0x46, 0x7F, 0x81, 0x08, 0x93, 0x45, 0x7F, 0x82, 0x38, 0x83, 0x45, 0x7F, 0x48, 0x93, 0x46, 0x7F, 0x81, 0x18, 0x83, 0x46, 0x7F, 0x28, 0x93, 0x45, 0x7F, 0x81, 0x18, 0x83, 0x45, 0x7F, 0x28, 0x93, 0x43, 0x7F, 0x82, 0x38, 0x83, 0x43, 0x7F, 0x48, 0x93, 0x45, 0x7F, 0x82, 0x38, 0x83, 0x45, 0x7F, 0x83, 0x48, 0x93, 0x41, 0x7F, 0x82, 0x38, 0x83, 0x41, 0x7F, 0x48, 0x93, 0x43, 0x7F, 0x82, 0x38, 0x83, 0x43, 0x7F, 0x48, 0x93, 0x45, 0x7F, 0x82, 0x38, 0x83, 0x45, 0x7F, 0x48, 0x93, 0x48, 0x7F, 0x84, 0x78, 0x83, 0x48, 0x7F, 0x81, 0x08, 0x93, 0x46, 0x7F, 0x82, 0x38, 0x83, 0x46, 0x7F, 0x48, 0x93, 0x45, 0x7F, 0x84, 0x00, 0x83, 0x45, 0x7F, 0x82, 0x00, 0x93, 0x45, 0x7F, 0x82, 0x38, 0x83, 0x45, 0x7F, 0x48, 0x93, 0x46, 0x7F, 0x82, 0x38, 0x83, 0x46, 0x7F, 0x48, 0x93, 0x48, 0x7F, 0x82, 0x38, 0x83, 0x48, 0x7F, 0x48, 0x93, 0x48, 0x7F, 0x84, 0x78, 0x83, 0x48, 0x7F, 0x81, 0x08, 0x93, 0x4A, 0x7F, 0x82, 0x38, 0x83, 0x4A, 0x7F, 0x48, 0x93, 0x4A, 0x7F, 0x86, 0x00, 0x83, 0x4A, 0x7F, 0x83, 0x00, 0x93, 0x4A, 0x7F, 0x84, 0x78, 0x83, 0x4A, 0x60, 0x81, 0x08, 0x93, 0x4B, 0x7F, 0x00, 0xE3, 0x58, 0x36, 0x48, 0xE3, 0x20, 0x38, 0x50, 0xE3, 0x68, 0x39, 0x81, 0x20, 0xE3, 0x30, 0x3B, 0x81, 0x20, 0xE3, 0x78, 0x3C, 0x81, 0x20, 0x83, 0x4B, 0x7F, 0x00, 0xE3, 0x40, 0x3E, 0x08, 0xE3, 0x00, 0x40, 0x81, 0x00, 0x93, 0x46, 0x7F, 0x82, 0x38, 0x83, 0x46, 0x7F, 0x48, 0x93, 0x46, 0x7F, 0x86, 0x00, 0x83, 0x46, 0x7F, 0x83, 0x00, 0x93, 0x4B, 0x7F, 0x84, 0x78, 0x83, 0x4B, 0x7F, 0x81, 0x08, 0x93, 0x4D, 0x7F, 0x00, 0xE3, 0x58, 0x36, 0x48, 0xE3, 0x20, 0x38, 0x50, 0xE3, 0x68, 0x39, 0x81, 0x20, 0xE3, 0x30, 0x3B, 0x81, 0x20, 0xE3, 0x78, 0x3C, 0x81, 0x20, 0x83, 0x4D, 0x7F, 0x00, 0xE3, 0x40, 0x3E, 0x08, 0xE3, 0x00, 0x40, 0x81, 0x00, 0x93, 0x48, 0x7F, 0x82, 0x38, 0x83, 0x48, 0x7F, 0x48, 0x93, 0x48, 0x7F, 0x86, 0x00, 0x83, 0x48, 0x7F, 0x83, 0x00, 0x93, 0x4D, 0x7F, 0x84, 0x78, 0x83, 0x4D, 0x7F, 0x81, 0x08, 0x93, 0x4E, 0x7F, 0x00, 0xE3, 0x58, 0x36, 0x48, 0xE3, 0x20, 0x38, 0x50, 0xE3, 0x68, 0x39, 0x81, 0x20, 0xE3, 0x30, 0x3B, 0x81, 0x20, 0xE3, 0x78, 0x3C, 0x81, 0x20, 0x83, 0x4E, 0x7F, 0x00, 0xE3, 0x40, 0x3E, 0x08, 0xE3, 0x00, 0x40, 0x81, 0x00, 0x93, 0x49, 0x7F, 0x82, 0x38, 0x83, 0x49, 0x7F, 0x48, 0x93, 0x49, 0x7F, 0x86, 0x50, 0x83, 0x49, 0x7F, 0x82, 0x30, 0x93, 0x4E, 0x7F, 0x84, 0x78, 0x83, 0x4E, 0x7F, 0x81, 0x08, 0x93, 0x4F, 0x7F, 0x82, 0x38, 0x83, 0x4F, 0x7F, 0x48, 0x93, 0x4A, 0x7F, 0x82, 0x38, 0x83, 0x4A, 0x7F, 0x48, 0x93, 0x4F, 0x7F, 0x82, 0x38, 0x83, 0x4F, 0x7F, 0x48, 0x93, 0x50, 0x7F, 0x82, 0x38, 0x83, 0x50, 0x7F, 0x48, 0x93, 0x4B, 0x7F, 0x82, 0x38, 0x83, 0x4B, 0x7F, 0x48, 0x93, 0x50, 0x7F, 0x82, 0x38, 0x83, 0x50, 0x7F, 0x48, 0x93, 0x51, 0x7F, 0x82, 0x38, 0x83, 0x51, 0x7F, 0x48, 0x93, 0x4C, 0x7F, 0x82, 0x38, 0x83, 0x4C, 0x7F, 0x48, 0x93, 0x51, 0x7F, 0x82, 0x38, 0x83, 0x51, 0x7F, 0x48, 0x93, 0x52, 0x7F, 0x85, 0x18, 0x83, 0x52, 0x7F, 0x81, 0xC9, 0x68, 0x93, 0x4A, 0x7F, 0x84, 0x78, 0x83, 0x4A, 0x7F, 0x81, 0x08, 0x93, 0x48, 0x7F, 0x84, 0x78, 0x83, 0x48, 0x7F, 0x81, 0x08, 0x93, 0x46, 0x7F, 0x84, 0x78, 0x83, 0x46, 0x7F, 0x81, 0x08, 0x93, 0x45, 0x7F, 0x82, 0x38, 0x83, 0x45, 0x7F, 0x48, 0x93, 0x46, 0x7F, 0x81, 0x18, 0x83, 0x46, 0x7F, 0x28, 0x93, 0x45, 0x7F, 0x81, 0x18, 0x83, 0x45, 0x7F, 0x28, 0x93, 0x43, 0x7F, 0x82, 0x38, 0x83, 0x43, 0x7F, 0x48, 0x93, 0x45, 0x7F, 0x82, 0x38, 0x83, 0x45, 0x7F, 0x83, 0x48, 0x93, 0x41, 0x7F, 0x82, 0x38, 0x83, 0x41, 0x7F, 0x48, 0x93, 0x43, 0x7F, 0x82, 0x38, 0x83, 0x43, 0x7F, 0x48, 0x93, 0x45, 0x7F, 0x82, 0x38, 0x83, 0x45, 0x7F, 0x48, 0x93, 0x48, 0x7F, 0x84, 0x78, 0x83, 0x48, 0x7F, 0x81, 0x08, 0x93, 0x46, 0x7F, 0x82, 0x38, 0x83, 0x46, 0x7F, 0x48, 0x93, 0x45, 0x7F, 0x84, 0x00, 0x83, 0x45, 0x7F, 0x82, 0x00, 0x93, 0x45, 0x7F, 0x82, 0x38, 0x83, 0x45, 0x7F, 0x48, 0x93, 0x46, 0x7F, 0x82, 0x38, 0x83, 0x46, 0x7F, 0x48, 0x93, 0x48, 0x7F, 0x82, 0x38, 0x83, 0x48, 0x7F, 0x48, 0x93, 0x48, 0x7F, 0x84, 0x78, 0x83, 0x48, 0x7F, 0x81, 0x08, 0x93, 0x4A, 0x7F, 0x82, 0x38, 0x83, 0x4A, 0x7F, 0x48, 0x93, 0x4A, 0x7F, 0x86, 0x00, 0x83, 0x4A, 0x7F, 0x83, 0x00, 0x93, 0x4A, 0x7F, 0x84, 0x78, 0x83, 0x4A, 0x7F, 0x81, 0x08, 0x93, 0x4B, 0x7F, 0x84, 0x78, 0x83, 0x4B, 0x7F, 0x81, 0x08, 0x93, 0x46, 0x7F, 0x82, 0x38, 0x83, 0x46, 0x7F, 0x48, 0x93, 0x46, 0x7F, 0x86, 0x00, 0x83, 0x46, 0x7F, 0x83, 0x00, 0x93, 0x4B, 0x7F, 0x84, 0x78, 0x83, 0x4B, 0x7F, 0x81, 0x08, 0x93, 0x4D, 0x7F, 0x84, 0x78, 0x83, 0x4D, 0x7F, 0x81, 0x08, 0x93, 0x48, 0x7F, 0x82, 0x38, 0x83, 0x48, 0x7F, 0x48, 0x93, 0x48, 0x7F, 0x86, 0x00, 0x83, 0x48, 0x7F, 0x83, 0x00, 0x93, 0x4D, 0x7F, 0x84, 0x78, 0x83, 0x4D, 0x7F, 0x81, 0x08, 0x93, 0x4E, 0x7F, 0x84, 0x78, 0x83, 0x4E, 0x7F, 0x81, 0x08, 0x93, 0x49, 0x7F, 0x82, 0x38, 0x83, 0x49, 0x7F, 0x48, 0x93, 0x49, 0x7F, 0x86, 0x50, 0x83, 0x49, 0x7F, 0x82, 0x30, 0x93, 0x4E, 0x7F, 0x84, 0x78, 0x83, 0x4E, 0x7F, 0x00, 0xFF, 0x2F, 0x00, 0x4D, 0x54, 0x72, 0x6B, 0x00, 0x00, 0x01, 0x60, 0x00, 0xB4, 0x00, 0x00, 0x00, 0xC4, 0x30, 0x00, 0xFF, 0x59, 0x02, 0xFE, 0x00, 0x83, 0xE0, 0x00, 0xB4, 0x07, 0x3C, 0x8C, 0x00, 0x94, 0x3E, 0x68, 0xA3, 0x78, 0x84, 0x3E, 0x7F, 0x08, 0x94, 0x3C, 0x68, 0x97, 0x78, 0x84, 0x3C, 0x7F, 0x08, 0x94, 0x45, 0x68, 0x84, 0x78, 0x84, 0x45, 0x41, 0x81, 0x08, 0x94, 0x46, 0x68, 0x82, 0x38, 0x84, 0x46, 0x41, 0x48, 0x94, 0x46, 0x68, 0x86, 0x00, 0x84, 0x46, 0x63, 0x83, 0x00, 0x94, 0x46, 0x64, 0x84, 0x00, 0x84, 0x46, 0x40, 0x82, 0x00, 0x94, 0x46, 0x64, 0x84, 0x78, 0x84, 0x46, 0x40, 0x81, 0x08, 0x94, 0x43, 0x64, 0x82, 0x38, 0x84, 0x43, 0x40, 0x48, 0x94, 0x43, 0x7F, 0x86, 0x00, 0x84, 0x43, 0x40, 0x83, 0x00, 0x94, 0x43, 0x64, 0x84, 0x78, 0x84, 0x43, 0x40, 0x81, 0x08, 0x94, 0x43, 0x64, 0x84, 0x78, 0x84, 0x43, 0x40, 0x81, 0x08, 0x94, 0x45, 0x64, 0x82, 0x38, 0x84, 0x45, 0x40, 0x48, 0x94, 0x45, 0x64, 0x87, 0x38, 0x84, 0x45, 0x40, 0x81, 0x48, 0x94, 0x45, 0x64, 0x84, 0x78, 0x84, 0x45, 0x40, 0x81, 0x08, 0x94, 0x45, 0x64, 0x84, 0x78, 0x84, 0x45, 0x40, 0x81, 0x08, 0x94, 0x46, 0x64, 0x82, 0x38, 0x84, 0x46, 0x40, 0x48, 0x94, 0x46, 0x64, 0x87, 0x38, 0x84, 0x46, 0x40, 0x81, 0xF7, 0x48, 0x94, 0x3E, 0x68, 0xA3, 0x78, 0x84, 0x3E, 0x40, 0x08, 0x94, 0x3C, 0x68, 0x97, 0x78, 0x84, 0x3C, 0x40, 0x08, 0x94, 0x45, 0x68, 0x84, 0x78, 0x84, 0x45, 0x41, 0x81, 0x08, 0x94, 0x46, 0x68, 0x82, 0x38, 0x84, 0x46, 0x41, 0x48, 0x94, 0x46, 0x68, 0x86, 0x00, 0x84, 0x46, 0x40, 0x83, 0x00, 0x94, 0x46, 0x64, 0x84, 0x00, 0x84, 0x46, 0x40, 0x82, 0x00, 0x94, 0x46, 0x64, 0x84, 0x78, 0x84, 0x46, 0x40, 0x81, 0x08, 0x94, 0x43, 0x64, 0x82, 0x38, 0x84, 0x43, 0x40, 0x48, 0x94, 0x43, 0x7F, 0x86, 0x00, 0x84, 0x43, 0x40, 0x83, 0x00, 0x94, 0x43, 0x64, 0x84, 0x78, 0x84, 0x43, 0x40, 0x81, 0x08, 0x94, 0x43, 0x64, 0x84, 0x78, 0x84, 0x43, 0x40, 0x81, 0x08, 0x94, 0x45, 0x64, 0x82, 0x38, 0x84, 0x45, 0x40, 0x48, 0x94, 0x45, 0x64, 0x87, 0x38, 0x84, 0x45, 0x40, 0x81, 0x48, 0x94, 0x45, 0x64, 0x84, 0x78, 0x84, 0x45, 0x40, 0x81, 0x08, 0x94, 0x45, 0x64, 0x84, 0x78, 0x84, 0x45, 0x40, 0x81, 0x08, 0x94, 0x46, 0x64, 0x82, 0x38, 0x84, 0x46, 0x40, 0x48, 0x94, 0x46, 0x64, 0x87, 0x38, 0x84, 0x46, 0x40, 0x00, 0xFF, 0x2F, 0x00, 0x4D, 0x54, 0x72, 0x6B, 0x00, 0x00, 0x00, 0xBE, 0x00, 0xB5, 0x00, 0x00, 0x00, 0xC5, 0x1E, 0x00, 0xFF, 0x59, 0x02, 0x00, 0x00, 0xB0, 0x00, 0x95, 0x4A, 0x64, 0x00, 0xB5, 0x07, 0x02, 0x20, 0xB5, 0x07, 0x04, 0x28, 0xB5, 0x07, 0x06, 0x28, 0xB5, 0x07, 0x08, 0x28, 0xB5, 0x07, 0x0A, 0x28, 0xB5, 0x07, 0x0C, 0x28, 0xB5, 0x07, 0x0E, 0x28, 0xB5, 0x07, 0x10, 0x28, 0xB5, 0x07, 0x12, 0x28, 0xB5, 0x07, 0x14, 0x28, 0xB5, 0x07, 0x16, 0x28, 0xB5, 0x07, 0x18, 0x28, 0xB5, 0x07, 0x1A, 0x28, 0xB5, 0x07, 0x1C, 0x28, 0xB5, 0x07, 0x1E, 0x28, 0xB5, 0x07, 0x20, 0x28, 0xB5, 0x07, 0x22, 0x28, 0xB5, 0x07, 0x24, 0x28, 0xB5, 0x07, 0x26, 0x28, 0xB5, 0x07, 0x28, 0x10, 0xB5, 0x07, 0x2A, 0x92, 0x00, 0xE5, 0x40, 0x3E, 0x28, 0xE5, 0x46, 0x3C, 0x28, 0xE5, 0x4C, 0x3A, 0x20, 0xE5, 0x52, 0x38, 0x28, 0xE5, 0x58, 0x36, 0x28, 0xE5, 0x5E, 0x34, 0x28, 0xE5, 0x64, 0x32, 0x28, 0xE5, 0x6A, 0x30, 0x28, 0xE5, 0x70, 0x2E, 0x28, 0xE5, 0x76, 0x2C, 0x82, 0x68, 0xB5, 0x07, 0x2D, 0x18, 0xB5, 0x07, 0x25, 0x18, 0xB5, 0x07, 0x1E, 0x88, 0x08, 0x85, 0x4A, 0x40, 0x84, 0x08, 0xE5, 0x00, 0x40, 0x85, 0x78, 0x95, 0x51, 0x64, 0x8C, 0x00, 0xE5, 0x14, 0x53, 0x86, 0x00, 0xE5, 0x70, 0x06, 0x9B, 0x78, 0x85, 0x51, 0x40, 0x00, 0xFF, 0x2F, 0x00, 0x4D, 0x54, 0x72, 0x6B, 0x00, 0x00, 0x03, 0x53, 0x00, 0xB6, 0x00, 0x00, 0x00, 0xC6, 0x49, 0x00, 0xB6, 0x0A, 0x33, 0x00, 0xB6, 0x5B, 0x00, 0x00, 0xB6, 0x5D, 0x00, 0x00, 0xFF, 0x59, 0x02, 0x00, 0x00, 0x82, 0xA0, 0x00, 0xB6, 0x07, 0x3C, 0x83, 0x00, 0x96, 0x4A, 0x7C, 0x78, 0x86, 0x4A, 0x4E, 0x82, 0x08, 0x96, 0x4A, 0x7C, 0x78, 0x86, 0x4A, 0x4E, 0x85, 0x08, 0x96, 0x4A, 0x7C, 0x78, 0x86, 0x4A, 0x4E, 0x82, 0x08, 0x96, 0x4A, 0x7C, 0x78, 0x86, 0x4A, 0x4E, 0x85, 0x08, 0x96, 0x4A, 0x7C, 0x78, 0x86, 0x4A, 0x4E, 0x82, 0x08, 0x96, 0x4A, 0x7C, 0x78, 0x86, 0x4A, 0x4E, 0x85, 0x08, 0x96, 0x4A, 0x7C, 0x78, 0x86, 0x4A, 0x4E, 0x82, 0x08, 0x96, 0x4A, 0x7C, 0x78, 0x86, 0x4A, 0x4E, 0x85, 0x08, 0x96, 0x4A, 0x7C, 0x78, 0x86, 0x4A, 0x4E, 0x82, 0x08, 0x96, 0x4A, 0x7C, 0x78, 0x86, 0x4A, 0x4E, 0x85, 0x08, 0x96, 0x4A, 0x7C, 0x78, 0x86, 0x4A, 0x4E, 0x82, 0x08, 0x96, 0x4A, 0x7C, 0x78, 0x86, 0x4A, 0x4E, 0x82, 0x08, 0x96, 0x4A, 0x7C, 0x78, 0x86, 0x4A, 0x4E, 0x85, 0x08, 0x96, 0x4A, 0x7C, 0x78, 0x86, 0x4A, 0x4E, 0x82, 0x08, 0x96, 0x4A, 0x7C, 0x78, 0x86, 0x4A, 0x4E, 0x85, 0x08, 0x96, 0x4A, 0x7C, 0x78, 0x86, 0x4A, 0x4E, 0x82, 0x08, 0x96, 0x4A, 0x7C, 0x78, 0x86, 0x4A, 0x4E, 0x85, 0x08, 0x96, 0x4A, 0x7C, 0x78, 0x86, 0x4A, 0x4E, 0x82, 0x08, 0x96, 0x4A, 0x7C, 0x78, 0x86, 0x4A, 0x4E, 0x85, 0x08, 0x96, 0x4A, 0x7C, 0x78, 0x86, 0x4A, 0x4E, 0x82, 0x08, 0x96, 0x4A, 0x7C, 0x78, 0x86, 0x4A, 0x4E, 0x85, 0x08, 0x96, 0x4A, 0x7C, 0x78, 0x86, 0x4A, 0x4E, 0x82, 0x08, 0x96, 0x4A, 0x7C, 0x78, 0x86, 0x4A, 0x4E, 0x82, 0x08, 0x96, 0x4A, 0x7C, 0x78, 0x86, 0x4A, 0x4E, 0x85, 0x08, 0x96, 0x4A, 0x7C, 0x78, 0x86, 0x4A, 0x4E, 0x82, 0x08, 0x96, 0x4A, 0x7C, 0x78, 0x86, 0x4A, 0x4E, 0x85, 0x08, 0x96, 0x4A, 0x7C, 0x78, 0x86, 0x4A, 0x4E, 0x82, 0x08, 0x96, 0x4A, 0x7C, 0x78, 0x86, 0x4A, 0x4E, 0x85, 0x08, 0x96, 0x4A, 0x7C, 0x78, 0x86, 0x4A, 0x4E, 0x82, 0x08, 0x96, 0x4A, 0x7C, 0x78, 0x86, 0x4A, 0x4E, 0x85, 0x08, 0x96, 0x4A, 0x7C, 0x78, 0x86, 0x4A, 0x4E, 0x82, 0x08, 0x96, 0x4A, 0x7C, 0x78, 0x86, 0x4A, 0x4E, 0x85, 0x08, 0x96, 0x4A, 0x7C, 0x78, 0x86, 0x4A, 0x4E, 0x82, 0x08, 0x96, 0x4A, 0x7C, 0x78, 0x86, 0x4A, 0x4E, 0x82, 0x08, 0x96, 0x4A, 0x7C, 0x78, 0x86, 0x4A, 0x4E, 0x85, 0x08, 0x96, 0x4A, 0x7C, 0x78, 0x86, 0x4A, 0x4E, 0x82, 0x08, 0x96, 0x4A, 0x7C, 0x78, 0x86, 0x4A, 0x4E, 0x85, 0x08, 0x96, 0x4A, 0x7C, 0x78, 0x86, 0x4A, 0x4E, 0x82, 0x08, 0x96, 0x4A, 0x7C, 0x78, 0x86, 0x4A, 0x4E, 0x85, 0x08, 0x96, 0x4A, 0x7C, 0x78, 0x86, 0x4A, 0x4E, 0x82, 0x08, 0x96, 0x4A, 0x7C, 0x78, 0x86, 0x4A, 0x4E, 0x85, 0x08, 0x96, 0x4A, 0x7C, 0x78, 0x86, 0x4A, 0x4E, 0x82, 0x08, 0x96, 0x4A, 0x7C, 0x78, 0x86, 0x4A, 0x4E, 0x85, 0x08, 0x96, 0x4A, 0x7C, 0x78, 0x86, 0x4A, 0x4E, 0x82, 0x08, 0x96, 0x4A, 0x7C, 0x78, 0x86, 0x4A, 0x4E, 0x81, 0xC8, 0x08, 0xB6, 0x07, 0x3C, 0x83, 0x00, 0x96, 0x4A, 0x7C, 0x78, 0x86, 0x4A, 0x4E, 0x82, 0x08, 0x96, 0x4A, 0x7C, 0x78, 0x86, 0x4A, 0x4E, 0x85, 0x08, 0x96, 0x4A, 0x7C, 0x78, 0x86, 0x4A, 0x4E, 0x82, 0x08, 0x96, 0x4A, 0x7C, 0x78, 0x86, 0x4A, 0x4E, 0x85, 0x08, 0x96, 0x4A, 0x7C, 0x78, 0x86, 0x4A, 0x4E, 0x82, 0x08, 0x96, 0x4A, 0x7C, 0x78, 0x86, 0x4A, 0x4E, 0x85, 0x08, 0x96, 0x4A, 0x7C, 0x78, 0x86, 0x4A, 0x4E, 0x82, 0x08, 0x96, 0x4A, 0x7C, 0x78, 0x86, 0x4A, 0x4E, 0x85, 0x08, 0x96, 0x4A, 0x7C, 0x78, 0x86, 0x4A, 0x4E, 0x82, 0x08, 0x96, 0x4A, 0x7C, 0x78, 0x86, 0x4A, 0x4E, 0x85, 0x08, 0x96, 0x4A, 0x7C, 0x78, 0x86, 0x4A, 0x4E, 0x82, 0x08, 0x96, 0x4A, 0x7C, 0x78, 0x86, 0x4A, 0x4E, 0x82, 0x08, 0x96, 0x4A, 0x7C, 0x78, 0x86, 0x4A, 0x4E, 0x85, 0x08, 0x96, 0x4A, 0x7C, 0x78, 0x86, 0x4A, 0x4E, 0x82, 0x08, 0x96, 0x4A, 0x7C, 0x78, 0x86, 0x4A, 0x4E, 0x85, 0x08, 0x96, 0x4A, 0x7C, 0x78, 0x86, 0x4A, 0x4E, 0x82, 0x08, 0x96, 0x4A, 0x7C, 0x78, 0x86, 0x4A, 0x4E, 0x85, 0x08, 0x96, 0x4A, 0x7C, 0x78, 0x86, 0x4A, 0x4E, 0x82, 0x08, 0x96, 0x4A, 0x7C, 0x78, 0x86, 0x4A, 0x4E, 0x85, 0x08, 0x96, 0x4A, 0x7C, 0x78, 0x86, 0x4A, 0x4E, 0x82, 0x08, 0x96, 0x4A, 0x7C, 0x78, 0x86, 0x4A, 0x4E, 0x85, 0x08, 0x96, 0x4A, 0x7C, 0x78, 0x86, 0x4A, 0x4E, 0x82, 0x08, 0x96, 0x4A, 0x7C, 0x78, 0x86, 0x4A, 0x4E, 0x82, 0x08, 0x96, 0x4A, 0x7C, 0x78, 0x86, 0x4A, 0x4E, 0x85, 0x08, 0x96, 0x4A, 0x7C, 0x78, 0x86, 0x4A, 0x4E, 0x82, 0x08, 0x96, 0x4A, 0x7C, 0x78, 0x86, 0x4A, 0x4E, 0x85, 0x08, 0x96, 0x4A, 0x7C, 0x78, 0x86, 0x4A, 0x4E, 0x82, 0x08, 0x96, 0x4A, 0x7C, 0x78, 0x86, 0x4A, 0x4E, 0x85, 0x08, 0x96, 0x4A, 0x7C, 0x78, 0x86, 0x4A, 0x4E, 0x82, 0x08, 0x96, 0x4A, 0x7C, 0x78, 0x86, 0x4A, 0x4E, 0x85, 0x08, 0x96, 0x4A, 0x7C, 0x78, 0x86, 0x4A, 0x4E, 0x82, 0x08, 0x96, 0x4A, 0x7C, 0x78, 0x86, 0x4A, 0x4E, 0x85, 0x08, 0x96, 0x4A, 0x7C, 0x78, 0x86, 0x4A, 0x4E, 0x82, 0x08, 0x96, 0x4A, 0x7C, 0x78, 0x86, 0x4A, 0x4E, 0x82, 0x08, 0x96, 0x4A, 0x7C, 0x78, 0x86, 0x4A, 0x4E, 0x85, 0x08, 0x96, 0x4A, 0x7C, 0x78, 0x86, 0x4A, 0x4E, 0x82, 0x08, 0x96, 0x4A, 0x7C, 0x78, 0x86, 0x4A, 0x4E, 0x85, 0x08, 0x96, 0x4A, 0x7C, 0x78, 0x86, 0x4A, 0x4E, 0x82, 0x08, 0x96, 0x4A, 0x7C, 0x78, 0x86, 0x4A, 0x4E, 0x85, 0x08, 0x96, 0x4A, 0x7C, 0x78, 0x86, 0x4A, 0x4E, 0x82, 0x08, 0x96, 0x4A, 0x7C, 0x78, 0x86, 0x4A, 0x4E, 0x85, 0x08, 0x96, 0x4A, 0x7C, 0x78, 0x86, 0x4A, 0x4E, 0x82, 0x08, 0x96, 0x4A, 0x7C, 0x78, 0x86, 0x4A, 0x4E, 0x85, 0x08, 0x96, 0x4A, 0x7C, 0x78, 0x86, 0x4A, 0x4E, 0x82, 0x08, 0x96, 0x4A, 0x7C, 0x78, 0x86, 0x4A, 0x4E, 0x00, 0xFF, 0x2F, 0x00, 0x4D, 0x54, 0x72, 0x6B, 0x00, 0x00, 0x00, 0x16, 0x00, 0xB7, 0x0A, 0x33, 0x00, 0xB7, 0x5B, 0x00, 0x00, 0xB7, 0x5D, 0x00, 0x00, 0xFF, 0x59, 0x02, 0xFE, 0x00, 0x00, 0xFF, 0x2F, 0x00, 0x4D, 0x54, 0x72, 0x6B, 0x00, 0x00, 0x00, 0x16, 0x00, 0xB8, 0x0A, 0x3A, 0x00, 0xB8, 0x5B, 0x7F, 0x00, 0xB8, 0x5D, 0x00, 0x00, 0xFF, 0x59, 0x02, 0xFE, 0x00, 0x00, 0xFF, 0x2F, 0x00, 0x4D, 0x54, 0x72, 0x6B, 0x00, 0x00, 0x0C, 0xFE, 0x00, 0xB9, 0x00, 0x00, 0x00, 0xC9, 0x08, 0x00, 0xB9, 0x0A, 0x3F, 0x00, 0xB9, 0x5B, 0x7F, 0x00, 0xFF, 0x59, 0x02, 0x00, 0x00, 0xD4, 0x00, 0x99, 0x24, 0x64, 0x00, 0x99, 0x23, 0x64, 0x00, 0x99, 0x18, 0x64, 0x00, 0xB9, 0x0A, 0x7F, 0x84, 0x00, 0x89, 0x24, 0x40, 0x00, 0x89, 0x23, 0x40, 0x00, 0x89, 0x18, 0x40, 0x40, 0x99, 0x24, 0x64, 0x00, 0x99, 0x23, 0x64, 0x00, 0x99, 0x18, 0x64, 0x81, 0x00, 0x89, 0x24, 0x40, 0x00, 0x89, 0x23, 0x40, 0x00, 0x89, 0x18, 0x40, 0x84, 0x20, 0x99, 0x24, 0x64, 0x00, 0x99, 0x23, 0x64, 0x00, 0x99, 0x18, 0x64, 0x40, 0x89, 0x24, 0x40, 0x00, 0x89, 0x23, 0x40, 0x00, 0x89, 0x18, 0x40, 0x20, 0x99, 0x24, 0x7F, 0x00, 0x99, 0x18, 0x7F, 0x00, 0x99, 0x23, 0x7F, 0x81, 0x00, 0x89, 0x24, 0x7F, 0x18, 0x89, 0x18, 0x7F, 0x28, 0x99, 0x24, 0x7F, 0x83, 0x38, 0x89, 0x23, 0x7D, 0x81, 0x40, 0x89, 0x24, 0x7D, 0x81, 0x08, 0x99, 0x23, 0x7F, 0x00, 0x99, 0x24, 0x7F, 0x84, 0x00, 0x89, 0x23, 0x7F, 0x78, 0x89, 0x24, 0x7D, 0x81, 0x08, 0x99, 0x23, 0x7F, 0x00, 0x99, 0x24, 0x7F, 0x84, 0x00, 0x89, 0x23, 0x7F, 0x78, 0x89, 0x24, 0x7D, 0x81, 0x08, 0x99, 0x23, 0x7F, 0x00, 0x99, 0x24, 0x7F, 0x84, 0x00, 0x89, 0x23, 0x7F, 0x78, 0x89, 0x24, 0x7D, 0x81, 0x08, 0x99, 0x23, 0x7F, 0x00, 0x99, 0x24, 0x7F, 0x84, 0x00, 0x89, 0x23, 0x7F, 0x78, 0x89, 0x24, 0x7D, 0x81, 0x08, 0x99, 0x23, 0x7F, 0x00, 0x99, 0x24, 0x7F, 0x84, 0x00, 0x89, 0x23, 0x7F, 0x78, 0x89, 0x24, 0x7D, 0x81, 0x08, 0x99, 0x23, 0x7F, 0x00, 0x99, 0x24, 0x7F, 0x84, 0x00, 0x89, 0x23, 0x7F, 0x78, 0x89, 0x24, 0x7D, 0x81, 0x08, 0x99, 0x23, 0x7F, 0x00, 0x99, 0x24, 0x7F, 0x84, 0x00, 0x89, 0x23, 0x7F, 0x78, 0x89, 0x24, 0x7D, 0x81, 0x08, 0x99, 0x23, 0x7F, 0x00, 0x99, 0x24, 0x7F, 0x84, 0x78, 0x89, 0x24, 0x7D, 0x20, 0x89, 0x23, 0x7F, 0x68, 0x99, 0x23, 0x7F, 0x00, 0x99, 0x24, 0x7F, 0x84, 0x78, 0x89, 0x24, 0x7D, 0x20, 0x89, 0x23, 0x7F, 0x68, 0x99, 0x23, 0x7F, 0x00, 0x99, 0x24, 0x7F, 0x84, 0x78, 0x89, 0x24, 0x7D, 0x20, 0x89, 0x23, 0x7F, 0x68, 0x99, 0x23, 0x7F, 0x00, 0x99, 0x24, 0x7F, 0x84, 0x78, 0x89, 0x24, 0x7D, 0x20, 0x89, 0x23, 0x7F, 0x68, 0x99, 0x23, 0x7F, 0x00, 0x99, 0x24, 0x7F, 0x84, 0x78, 0x89, 0x24, 0x7D, 0x20, 0x89, 0x23, 0x7F, 0x68, 0x99, 0x23, 0x7F, 0x00, 0x99, 0x24, 0x7F, 0x84, 0x78, 0x89, 0x24, 0x7D, 0x20, 0x89, 0x23, 0x7F, 0x68, 0x99, 0x23, 0x7F, 0x00, 0x99, 0x24, 0x7F, 0x84, 0x78, 0x89, 0x24, 0x7D, 0x20, 0x89, 0x23, 0x7F, 0x68, 0x99, 0x23, 0x7F, 0x00, 0x99, 0x24, 0x7F, 0x84, 0x78, 0x89, 0x24, 0x7D, 0x20, 0x89, 0x23, 0x7F, 0x68, 0x99, 0x23, 0x64, 0x00, 0x99, 0x24, 0x64, 0x86, 0x00, 0x99, 0x2D, 0x64, 0x82, 0x30, 0x89, 0x2D, 0x40, 0x81, 0x28, 0x89, 0x23, 0x40, 0x00, 0x89, 0x24, 0x40, 0x82, 0x28, 0x99, 0x23, 0x64, 0x00, 0x99, 0x24, 0x64, 0x82, 0x30, 0x89, 0x24, 0x40, 0x50, 0x99, 0x23, 0x64, 0x00, 0x99, 0x24, 0x64, 0x81, 0x68, 0x89, 0x23, 0x40, 0x48, 0x89, 0x23, 0x40, 0x00, 0x89, 0x24, 0x40, 0x50, 0x99, 0x2D, 0x64, 0x82, 0x38, 0x89, 0x2D, 0x40, 0x83, 0x48, 0x99, 0x23, 0x64, 0x00, 0x99, 0x24, 0x64, 0x84, 0x78, 0x89, 0x23, 0x40, 0x00, 0x89, 0x24, 0x40, 0x81, 0x08, 0x99, 0x2D, 0x64, 0x82, 0x38, 0x89, 0x2D, 0x40, 0x83, 0x48, 0x99, 0x23, 0x64, 0x00, 0x99, 0x24, 0x64, 0x82, 0x30, 0x89, 0x24, 0x40, 0x50, 0x99, 0x23, 0x64, 0x00, 0x99, 0x24, 0x64, 0x81, 0x68, 0x89, 0x23, 0x40, 0x48, 0x89, 0x23, 0x40, 0x00, 0x89, 0x24, 0x40, 0x50, 0x99, 0x2D, 0x64, 0x82, 0x30, 0x89, 0x2D, 0x40, 0x83, 0x50, 0x99, 0x23, 0x64, 0x00, 0x99, 0x24, 0x64, 0x86, 0x00, 0x99, 0x2D, 0x64, 0x82, 0x30, 0x89, 0x2D, 0x40, 0x81, 0x28, 0x89, 0x23, 0x40, 0x00, 0x89, 0x24, 0x40, 0x82, 0x28, 0x99, 0x23, 0x64, 0x00, 0x99, 0x24, 0x64, 0x82, 0x30, 0x89, 0x24, 0x40, 0x50, 0x99, 0x23, 0x64, 0x00, 0x99, 0x24, 0x64, 0x81, 0x68, 0x89, 0x23, 0x40, 0x48, 0x89, 0x23, 0x40, 0x00, 0x89, 0x24, 0x40, 0x50, 0x99, 0x2D, 0x64, 0x82, 0x30, 0x89, 0x2D, 0x40, 0x83, 0x50, 0x99, 0x23, 0x64, 0x00, 0x99, 0x24, 0x64, 0x86, 0x00, 0x99, 0x2D, 0x64, 0x82, 0x30, 0x89, 0x2D, 0x40, 0x81, 0x28, 0x89, 0x23, 0x40, 0x00, 0x89, 0x24, 0x40, 0x82, 0x28, 0x99, 0x23, 0x7F, 0x00, 0x99, 0x24, 0x7F, 0x00, 0x99, 0x23, 0x64, 0x00, 0x99, 0x24, 0x64, 0x81, 0x40, 0x99, 0x24, 0x7F, 0x70, 0x89, 0x24, 0x40, 0x18, 0x89, 0x24, 0x7F, 0x10, 0x89, 0x24, 0x7F, 0x28, 0x99, 0x24, 0x7F, 0x00, 0x99, 0x23, 0x64, 0x00, 0x99, 0x24, 0x64, 0x81, 0x00, 0x89, 0x23, 0x7F, 0x68, 0x89, 0x23, 0x40, 0x48, 0x89, 0x24, 0x40, 0x00, 0x89, 0x23, 0x40, 0x18, 0x89, 0x24, 0x7F, 0x38, 0x99, 0x23, 0x7F, 0x00, 0x99, 0x24, 0x7F, 0x00, 0x99, 0x2D, 0x64, 0x82, 0x30, 0x89, 0x2D, 0x40, 0x18, 0x89, 0x24, 0x7F, 0x38, 0x99, 0x24, 0x7F, 0x81, 0x00, 0x89, 0x23, 0x7F, 0x81, 0x48, 0x89, 0x24, 0x7F, 0x38, 0x99, 0x23, 0x7F, 0x00, 0x99, 0x24, 0x7F, 0x84, 0x78, 0x89, 0x23, 0x7F, 0x00, 0x89, 0x24, 0x7D, 0x81, 0x08, 0x99, 0x2D, 0x7F, 0x84, 0x78, 0x89, 0x2D, 0x7F, 0x81, 0x08, 0x99, 0x23, 0x7F, 0x00, 0x99, 0x24, 0x7F, 0x82, 0x38, 0x89, 0x23, 0x7D, 0x48, 0x99, 0x23, 0x7F, 0x81, 0x78, 0x89, 0x24, 0x7D, 0x40, 0x89, 0x23, 0x7D, 0x48, 0x99, 0x2D, 0x7F, 0x84, 0x78, 0x89, 0x2D, 0x7F, 0x81, 0x08, 0x99, 0x23, 0x7F, 0x00, 0x99, 0x24, 0x7F, 0x84, 0x78, 0x89, 0x24, 0x7D, 0x20, 0x89, 0x23, 0x7F, 0x68, 0x99, 0x2D, 0x7F, 0x84, 0x78, 0x89, 0x2D, 0x7F, 0x81, 0x08, 0x99, 0x23, 0x7F, 0x00, 0x99, 0x24, 0x7F, 0x82, 0x38, 0x89, 0x23, 0x7D, 0x48, 0x99, 0x23, 0x7F, 0x81, 0x78, 0x89, 0x24, 0x7D, 0x40, 0x89, 0x23, 0x7D, 0x48, 0x99, 0x2D, 0x7F, 0x84, 0x78, 0x89, 0x2D, 0x7F, 0x81, 0x08, 0x99, 0x23, 0x7F, 0x00, 0x99, 0x24, 0x7F, 0x84, 0x78, 0x89, 0x23, 0x7F, 0x00, 0x89, 0x24, 0x7D, 0x81, 0x08, 0x99, 0x2D, 0x7F, 0x84, 0x78, 0x89, 0x2D, 0x7F, 0x81, 0x08, 0x99, 0x23, 0x7F, 0x00, 0x99, 0x24, 0x7F, 0x82, 0x38, 0x89, 0x23, 0x7D, 0x48, 0x99, 0x23, 0x7F, 0x81, 0x78, 0x89, 0x24, 0x7D, 0x40, 0x89, 0x23, 0x7D, 0x48, 0x99, 0x2D, 0x7F, 0x84, 0x78, 0x89, 0x2D, 0x7F, 0x81, 0x08, 0x99, 0x23, 0x7F, 0x00, 0x99, 0x24, 0x7F, 0x84, 0x78, 0x89, 0x24, 0x7D, 0x20, 0x89, 0x23, 0x7F, 0x68, 0x99, 0x2D, 0x7F, 0x84, 0x78, 0x89, 0x2D, 0x7F, 0x81, 0x08, 0x99, 0x23, 0x7F, 0x00, 0x99, 0x24, 0x7F, 0x82, 0x38, 0x89, 0x23, 0x7D, 0x48, 0x99, 0x23, 0x7F, 0x81, 0x78, 0x89, 0x24, 0x7D, 0x40, 0x89, 0x23, 0x7D, 0x48, 0x99, 0x2D, 0x7F, 0x84, 0x78, 0x89, 0x2D, 0x7F, 0x81, 0x08, 0x99, 0x23, 0x7F, 0x00, 0x99, 0x24, 0x7F, 0x84, 0x78, 0x89, 0x24, 0x7D, 0x20, 0x89, 0x23, 0x7F, 0x68, 0x99, 0x2D, 0x7F, 0x84, 0x78, 0x89, 0x2D, 0x7F, 0x81, 0x08, 0x99, 0x23, 0x7F, 0x00, 0x99, 0x24, 0x7F, 0x82, 0x38, 0x89, 0x23, 0x7D, 0x48, 0x99, 0x23, 0x7F, 0x81, 0x78, 0x89, 0x24, 0x7D, 0x40, 0x89, 0x23, 0x7D, 0x48, 0x99, 0x2D, 0x7F, 0x84, 0x78, 0x89, 0x2D, 0x7F, 0x81, 0x08, 0x99, 0x23, 0x7F, 0x00, 0x99, 0x24, 0x7F, 0x84, 0x78, 0x89, 0x24, 0x7D, 0x20, 0x89, 0x23, 0x7F, 0x68, 0x99, 0x2D, 0x7F, 0x84, 0x78, 0x89, 0x2D, 0x7F, 0x81, 0x08, 0x99, 0x23, 0x7F, 0x00, 0x99, 0x24, 0x7F, 0x82, 0x38, 0x89, 0x23, 0x7D, 0x48, 0x99, 0x23, 0x7F, 0x81, 0x78, 0x89, 0x24, 0x7D, 0x40, 0x89, 0x23, 0x7D, 0x48, 0x99, 0x2D, 0x7F, 0x84, 0x78, 0x89, 0x2D, 0x7F, 0x81, 0x08, 0x99, 0x23, 0x7F, 0x00, 0x99, 0x24, 0x7F, 0x84, 0x78, 0x89, 0x24, 0x7D, 0x20, 0x89, 0x23, 0x7F, 0x68, 0x99, 0x2D, 0x7F, 0x84, 0x78, 0x89, 0x2D, 0x7F, 0x81, 0x08, 0x99, 0x23, 0x7F, 0x00, 0x99, 0x24, 0x7F, 0x82, 0x38, 0x89, 0x23, 0x7D, 0x48, 0x99, 0x23, 0x7F, 0x81, 0x78, 0x89, 0x24, 0x7D, 0x40, 0x89, 0x23, 0x7D, 0x48, 0x99, 0x2D, 0x7F, 0x84, 0x78, 0x89, 0x2D, 0x7F, 0x81, 0x08, 0x99, 0x23, 0x7F, 0x00, 0x99, 0x24, 0x7F, 0x84, 0x78, 0x89, 0x24, 0x7D, 0x20, 0x89, 0x23, 0x7F, 0x68, 0x99, 0x2D, 0x7F, 0x84, 0x78, 0x89, 0x2D, 0x7F, 0x81, 0x08, 0x99, 0x23, 0x7F, 0x00, 0x99, 0x24, 0x7F, 0x82, 0x38, 0x89, 0x23, 0x7D, 0x48, 0x99, 0x23, 0x7F, 0x81, 0x78, 0x89, 0x24, 0x7D, 0x40, 0x89, 0x23, 0x7D, 0x48, 0x99, 0x2D, 0x7F, 0x84, 0x78, 0x89, 0x2D, 0x7F, 0x81, 0x08, 0x99, 0x23, 0x7F, 0x00, 0x99, 0x24, 0x7F, 0x84, 0x78, 0x89, 0x23, 0x7F, 0x00, 0x89, 0x24, 0x7D, 0x81, 0x08, 0x99, 0x2D, 0x7F, 0x84, 0x78, 0x89, 0x2D, 0x7F, 0x81, 0x08, 0x99, 0x23, 0x7F, 0x00, 0x99, 0x24, 0x7F, 0x82, 0x38, 0x89, 0x23, 0x7F, 0x48, 0x99, 0x23, 0x7F, 0x81, 0x78, 0x89, 0x24, 0x7D, 0x40, 0x89, 0x23, 0x7F, 0x48, 0x99, 0x2D, 0x7F, 0x84, 0x78, 0x89, 0x2D, 0x7F, 0x81, 0x08, 0x99, 0x23, 0x7F, 0x00, 0x99, 0x24, 0x7F, 0x84, 0x78, 0x89, 0x23, 0x7F, 0x00, 0x89, 0x24, 0x7D, 0x81, 0x08, 0x99, 0x2D, 0x7F, 0x84, 0x78, 0x89, 0x2D, 0x7F, 0x81, 0x08, 0x99, 0x23, 0x7F, 0x00, 0x99, 0x24, 0x7F, 0x82, 0x38, 0x89, 0x23, 0x7F, 0x48, 0x99, 0x23, 0x7F, 0x81, 0x78, 0x89, 0x24, 0x7D, 0x40, 0x89, 0x23, 0x7F, 0x48, 0x99, 0x2D, 0x7F, 0x84, 0x78, 0x89, 0x2D, 0x7F, 0x81, 0x08, 0x99, 0x23, 0x7F, 0x00, 0x99, 0x24, 0x7F, 0x84, 0x78, 0x89, 0x23, 0x7F, 0x00, 0x89, 0x24, 0x7D, 0x81, 0x08, 0x99, 0x2D, 0x7F, 0x84, 0x78, 0x89, 0x2D, 0x7F, 0x81, 0x08, 0x99, 0x23, 0x7F, 0x00, 0x99, 0x24, 0x7F, 0x82, 0x38, 0x89, 0x23, 0x7F, 0x48, 0x99, 0x23, 0x7F, 0x81, 0x78, 0x89, 0x24, 0x7D, 0x40, 0x89, 0x23, 0x7F, 0x48, 0x99, 0x2D, 0x7F, 0x84, 0x78, 0x89, 0x2D, 0x7F, 0x81, 0x08, 0x99, 0x23, 0x7F, 0x00, 0x99, 0x24, 0x7F, 0x84, 0x78, 0x89, 0x23, 0x7F, 0x00, 0x89, 0x24, 0x7D, 0x81, 0x08, 0x99, 0x2D, 0x7F, 0x84, 0x78, 0x89, 0x2D, 0x7F, 0x81, 0x08, 0x99, 0x23, 0x7F, 0x00, 0x99, 0x24, 0x7F, 0x82, 0x38, 0x89, 0x23, 0x7F, 0x48, 0x99, 0x23, 0x7F, 0x81, 0x78, 0x89, 0x24, 0x7D, 0x40, 0x89, 0x23, 0x7F, 0x48, 0x99, 0x2D, 0x7F, 0x84, 0x78, 0x89, 0x2D, 0x7F, 0x81, 0x08, 0x99, 0x23, 0x7F, 0x00, 0x99, 0x24, 0x7F, 0x84, 0x78, 0x89, 0x23, 0x7F, 0x00, 0x89, 0x24, 0x7D, 0x81, 0x08, 0x99, 0x2D, 0x7F, 0x84, 0x78, 0x89, 0x2D, 0x7F, 0x81, 0x08, 0x99, 0x23, 0x7F, 0x00, 0x99, 0x24, 0x7F, 0x82, 0x38, 0x89, 0x23, 0x7F, 0x48, 0x99, 0x23, 0x7F, 0x81, 0x78, 0x89, 0x24, 0x7D, 0x40, 0x89, 0x23, 0x7F, 0x48, 0x99, 0x2D, 0x7F, 0x84, 0x78, 0x89, 0x2D, 0x7F, 0x81, 0x08, 0x99, 0x23, 0x7F, 0x00, 0x99, 0x24, 0x7F, 0x84, 0x78, 0x89, 0x23, 0x7F, 0x00, 0x89, 0x24, 0x7D, 0x81, 0x08, 0x99, 0x2D, 0x7F, 0x84, 0x78, 0x89, 0x2D, 0x7F, 0x81, 0x08, 0x99, 0x23, 0x7F, 0x00, 0x99, 0x24, 0x7F, 0x82, 0x38, 0x89, 0x23, 0x7F, 0x48, 0x99, 0x23, 0x7F, 0x81, 0x78, 0x89, 0x24, 0x7D, 0x40, 0x89, 0x23, 0x7F, 0x48, 0x99, 0x2D, 0x7F, 0x84, 0x78, 0x89, 0x2D, 0x7F, 0x81, 0x08, 0x99, 0x23, 0x7F, 0x00, 0x99, 0x24, 0x64, 0x84, 0x78, 0x89, 0x23, 0x7F, 0x00, 0x89, 0x24, 0x40, 0x81, 0x08, 0x99, 0x2D, 0x7F, 0x84, 0x78, 0x89, 0x2D, 0x7F, 0x81, 0x08, 0x99, 0x23, 0x7F, 0x00, 0x99, 0x24, 0x64, 0x82, 0x38, 0x89, 0x23, 0x7F, 0x00, 0x89, 0x24, 0x40, 0x48, 0x99, 0x23, 0x7F, 0x00, 0x99, 0x24, 0x64, 0x82, 0x38, 0x89, 0x23, 0x7F, 0x00, 0x89, 0x24, 0x40, 0x48, 0x99, 0x2D, 0x7F, 0x84, 0x78, 0x89, 0x2D, 0x7F, 0x81, 0x08, 0x99, 0x23, 0x7F, 0x00, 0x99, 0x24, 0x7F, 0x82, 0x38, 0x89, 0x23, 0x7F, 0x00, 0x89, 0x24, 0x7F, 0x86, 0x48, 0x99, 0x23, 0x7F, 0x00, 0x99, 0x24, 0x7F, 0x82, 0x38, 0x89, 0x23, 0x7F, 0x00, 0x89, 0x24, 0x7F, 0x86, 0x48, 0x99, 0x23, 0x7F, 0x00, 0x99, 0x24, 0x7F, 0x82, 0x38, 0x89, 0x23, 0x7F, 0x00, 0x89, 0x24, 0x7D, 0x86, 0x48, 0x99, 0x23, 0x7F, 0x00, 0x99, 0x24, 0x7F, 0x82, 0x38, 0x89, 0x23, 0x7D, 0x00, 0x89, 0x24, 0x7D, 0x86, 0x48, 0x99, 0x23, 0x7F, 0x00, 0x99, 0x24, 0x7F, 0x84, 0x78, 0x89, 0x23, 0x7F, 0x00, 0x89, 0x24, 0x7D, 0x81, 0x08, 0x99, 0x2D, 0x7F, 0x00, 0x99, 0x2D, 0x7F, 0x84, 0x78, 0x89, 0x2D, 0x7F, 0x00, 0x89, 0x2D, 0x7F, 0x81, 0x08, 0x99, 0x23, 0x7F, 0x00, 0x99, 0x23, 0x7F, 0x00, 0x99, 0x24, 0x7F, 0x82, 0x38, 0x89, 0x23, 0x7D, 0x00, 0x89, 0x23, 0x7D, 0x48, 0x99, 0x23, 0x7F, 0x00, 0x99, 0x23, 0x7F, 0x81, 0x78, 0x89, 0x24, 0x7D, 0x40, 0x89, 0x23, 0x7D, 0x00, 0x89, 0x23, 0x7D, 0x48, 0x99, 0x2D, 0x7F, 0x00, 0x99, 0x2D, 0x7F, 0x84, 0x78, 0x89, 0x2D, 0x7F, 0x00, 0x89, 0x2D, 0x7F, 0x81, 0x08, 0x99, 0x23, 0x7F, 0x00, 0x99, 0x24, 0x7F, 0x84, 0x78, 0x89, 0x24, 0x7D, 0x20, 0x89, 0x23, 0x7F, 0x68, 0x99, 0x2D, 0x7F, 0x00, 0x99, 0x2D, 0x7F, 0x84, 0x78, 0x89, 0x2D, 0x7F, 0x00, 0x89, 0x2D, 0x7F, 0x81, 0x08, 0x99, 0x23, 0x7F, 0x00, 0x99, 0x23, 0x7F, 0x00, 0x99, 0x24, 0x7F, 0x82, 0x38, 0x89, 0x23, 0x7D, 0x00, 0x89, 0x23, 0x7D, 0x48, 0x99, 0x23, 0x7F, 0x00, 0x99, 0x23, 0x7F, 0x81, 0x78, 0x89, 0x24, 0x7D, 0x40, 0x89, 0x23, 0x7D, 0x00, 0x89, 0x23, 0x7D, 0x48, 0x99, 0x23, 0x7F, 0x00, 0x99, 0x2D, 0x7F, 0x00, 0x99, 0x23, 0x7F, 0x00, 0x99, 0x2D, 0x7F, 0x00, 0x99, 0x24, 0x7F, 0x84, 0x78, 0x89, 0x2D, 0x7F, 0x00, 0x89, 0x2D, 0x7F, 0x00, 0x89, 0x24, 0x7D, 0x20, 0x89, 0x23, 0x7F, 0x00, 0x89, 0x23, 0x7F, 0x68, 0x99, 0x23, 0x7F, 0x00, 0x99, 0x23, 0x7F, 0x00, 0x99, 0x24, 0x7F, 0x84, 0x78, 0x89, 0x23, 0x7F, 0x00, 0x89, 0x23, 0x7F, 0x00, 0x89, 0x24, 0x7D, 0x81, 0x08, 0x99, 0x2D, 0x7F, 0x00, 0x99, 0x2D, 0x7F, 0x84, 0x78, 0x89, 0x2D, 0x7F, 0x00, 0x89, 0x2D, 0x7F, 0x81, 0x08, 0x99, 0x23, 0x7F, 0x00, 0x99, 0x23, 0x7F, 0x00, 0x99, 0x24, 0x7F, 0x82, 0x38, 0x89, 0x23, 0x7D, 0x00, 0x89, 0x23, 0x7D, 0x48, 0x99, 0x23, 0x7F, 0x00, 0x99, 0x23, 0x7F, 0x81, 0x78, 0x89, 0x24, 0x7D, 0x40, 0x89, 0x23, 0x7D, 0x00, 0x89, 0x23, 0x7D, 0x48, 0x99, 0x2D, 0x7F, 0x00, 0x99, 0x2D, 0x7F, 0x84, 0x78, 0x89, 0x2D, 0x7F, 0x00, 0x89, 0x2D, 0x7F, 0x81, 0x08, 0x99, 0x23, 0x7F, 0x00, 0x99, 0x23, 0x7F, 0x00, 0x99, 0x24, 0x7F, 0x84, 0x78, 0x89, 0x24, 0x7D, 0x20, 0x89, 0x23, 0x7F, 0x00, 0x89, 0x23, 0x7F, 0x68, 0x99, 0x2D, 0x7F, 0x00, 0x99, 0x2D, 0x7F, 0x84, 0x78, 0x89, 0x2D, 0x7F, 0x00, 0x89, 0x2D, 0x7F, 0x81, 0x08, 0x99, 0x23, 0x7F, 0x00, 0x99, 0x23, 0x7F, 0x00, 0x99, 0x24, 0x7F, 0x82, 0x38, 0x89, 0x23, 0x7D, 0x00, 0x89, 0x23, 0x7D, 0x48, 0x99, 0x23, 0x7F, 0x00, 0x99, 0x23, 0x7F, 0x81, 0x78, 0x89, 0x24, 0x7D, 0x40, 0x89, 0x23, 0x7D, 0x00, 0x89, 0x23, 0x7D, 0x48, 0x99, 0x2D, 0x7F, 0x00, 0x99, 0x2D, 0x7F, 0x84, 0x78, 0x89, 0x2D, 0x7F, 0x00, 0x89, 0x2D, 0x7F, 0x81, 0x08, 0x99, 0x23, 0x7F, 0x00, 0x99, 0x23, 0x7F, 0x00, 0x99, 0x24, 0x7F, 0x84, 0x78, 0x89, 0x24, 0x7D, 0x20, 0x89, 0x23, 0x7F, 0x00, 0x89, 0x23, 0x7F, 0x68, 0x99, 0x2D, 0x7F, 0x00, 0x99, 0x2D, 0x7F, 0x84, 0x78, 0x89, 0x2D, 0x7F, 0x00, 0x89, 0x2D, 0x7F, 0x81, 0x08, 0x99, 0x23, 0x7F, 0x00, 0x99, 0x23, 0x7F, 0x00, 0x99, 0x24, 0x7F, 0x82, 0x38, 0x89, 0x23, 0x7D, 0x00, 0x89, 0x23, 0x7D, 0x48, 0x99, 0x23, 0x7F, 0x00, 0x99, 0x23, 0x7F, 0x81, 0x78, 0x89, 0x24, 0x7D, 0x40, 0x89, 0x23, 0x7D, 0x00, 0x89, 0x23, 0x7D, 0x48, 0x99, 0x2D, 0x7F, 0x00, 0x99, 0x2D, 0x7F, 0x84, 0x78, 0x89, 0x2D, 0x7F, 0x00, 0x89, 0x2D, 0x7F, 0x81, 0x08, 0x99, 0x23, 0x7F, 0x00, 0x99, 0x23, 0x7F, 0x00, 0x99, 0x24, 0x7F, 0x84, 0x78, 0x89, 0x24, 0x7D, 0x20, 0x89, 0x23, 0x7F, 0x00, 0x89, 0x23, 0x7F, 0x68, 0x99, 0x2D, 0x7F, 0x00, 0x99, 0x2D, 0x7F, 0x84, 0x78, 0x89, 0x2D, 0x7F, 0x00, 0x89, 0x2D, 0x7F, 0x81, 0x08, 0x99, 0x23, 0x7F, 0x00, 0x99, 0x23, 0x7F, 0x00, 0x99, 0x24, 0x7F, 0x82, 0x38, 0x89, 0x23, 0x7D, 0x00, 0x89, 0x23, 0x7D, 0x48, 0x99, 0x23, 0x7F, 0x00, 0x99, 0x23, 0x7F, 0x81, 0x78, 0x89, 0x24, 0x7D, 0x40, 0x89, 0x23, 0x7D, 0x00, 0x89, 0x23, 0x7D, 0x48, 0x99, 0x2D, 0x7F, 0x00, 0x99, 0x2D, 0x7F, 0x84, 0x78, 0x89, 0x2D, 0x7F, 0x00, 0x89, 0x2D, 0x7F, 0x81, 0x08, 0x99, 0x23, 0x7F, 0x00, 0x99, 0x23, 0x7F, 0x00, 0x99, 0x24, 0x7F, 0x84, 0x78, 0x89, 0x24, 0x7D, 0x20, 0x89, 0x23, 0x7F, 0x00, 0x89, 0x23, 0x7F, 0x68, 0x99, 0x2D, 0x7F, 0x00, 0x99, 0x2D, 0x7F, 0x84, 0x78, 0x89, 0x2D, 0x7F, 0x00, 0x89, 0x2D, 0x7F, 0x81, 0x08, 0x99, 0x23, 0x7F, 0x00, 0x99, 0x23, 0x7F, 0x00, 0x99, 0x24, 0x7F, 0x82, 0x38, 0x89, 0x23, 0x7D, 0x00, 0x89, 0x23, 0x7D, 0x48, 0x99, 0x23, 0x7F, 0x00, 0x99, 0x23, 0x7F, 0x81, 0x78, 0x89, 0x24, 0x7D, 0x40, 0x89, 0x23, 0x7D, 0x00, 0x89, 0x23, 0x7D, 0x48, 0x99, 0x2D, 0x7F, 0x00, 0x99, 0x2D, 0x7F, 0x84, 0x78, 0x89, 0x2D, 0x7F, 0x00, 0x89, 0x2D, 0x7F, 0x81, 0x08, 0x99, 0x23, 0x7F, 0x00, 0x99, 0x23, 0x7F, 0x00, 0x99, 0x24, 0x7F, 0x84, 0x78, 0x89, 0x24, 0x7D, 0x20, 0x89, 0x23, 0x7F, 0x00, 0x89, 0x23, 0x7F, 0x68, 0x99, 0x2D, 0x7F, 0x00, 0x99, 0x2D, 0x7F, 0x84, 0x78, 0x89, 0x2D, 0x7F, 0x00, 0x89, 0x2D, 0x7F, 0x81, 0x08, 0x99, 0x23, 0x7F, 0x00, 0x99, 0x23, 0x7F, 0x00, 0x99, 0x24, 0x7F, 0x82, 0x38, 0x89, 0x23, 0x7D, 0x00, 0x89, 0x23, 0x7D, 0x48, 0x99, 0x23, 0x7F, 0x00, 0x99, 0x23, 0x7F, 0x81, 0x78, 0x89, 0x24, 0x7D, 0x40, 0x89, 0x23, 0x7D, 0x00, 0x89, 0x23, 0x7D, 0x48, 0x99, 0x2D, 0x7F, 0x00, 0x99, 0x2D, 0x7F, 0x84, 0x78, 0x89, 0x2D, 0x7F, 0x00, 0x89, 0x2D, 0x7F, 0x81, 0x08, 0x99, 0x23, 0x7F, 0x00, 0x99, 0x23, 0x7F, 0x00, 0x99, 0x24, 0x7F, 0x84, 0x78, 0x89, 0x23, 0x7F, 0x00, 0x89, 0x23, 0x7F, 0x00, 0x89, 0x24, 0x7D, 0x81, 0x08, 0x99, 0x2D, 0x7F, 0x00, 0x99, 0x2D, 0x7F, 0x84, 0x78, 0x89, 0x2D, 0x7F, 0x00, 0x89, 0x2D, 0x7F, 0x81, 0x08, 0x99, 0x23, 0x7F, 0x00, 0x99, 0x23, 0x7F, 0x00, 0x99, 0x24, 0x7F, 0x82, 0x38, 0x89, 0x23, 0x7F, 0x00, 0x89, 0x23, 0x7F, 0x48, 0x99, 0x23, 0x7F, 0x00, 0x99, 0x23, 0x7F, 0x81, 0x78, 0x89, 0x24, 0x7D, 0x40, 0x89, 0x23, 0x7F, 0x00, 0x89, 0x23, 0x7F, 0x48, 0x99, 0x2D, 0x7F, 0x00, 0x99, 0x2D, 0x7F, 0x84, 0x78, 0x89, 0x2D, 0x7F, 0x00, 0x89, 0x2D, 0x7F, 0x81, 0x08, 0x99, 0x23, 0x7F, 0x00, 0x99, 0x23, 0x7F, 0x00, 0x99, 0x24, 0x7F, 0x84, 0x78, 0x89, 0x23, 0x7F, 0x00, 0x89, 0x23, 0x7F, 0x00, 0x89, 0x24, 0x7D, 0x81, 0x08, 0x99, 0x2D, 0x7F, 0x00, 0x99, 0x2D, 0x7F, 0x84, 0x78, 0x89, 0x2D, 0x7F, 0x00, 0x89, 0x2D, 0x7F, 0x81, 0x08, 0x99, 0x23, 0x7F, 0x00, 0x99, 0x23, 0x7F, 0x00, 0x99, 0x24, 0x7F, 0x82, 0x38, 0x89, 0x23, 0x7F, 0x00, 0x89, 0x23, 0x7F, 0x48, 0x99, 0x23, 0x7F, 0x00, 0x99, 0x23, 0x7F, 0x81, 0x78, 0x89, 0x24, 0x7D, 0x40, 0x89, 0x23, 0x7F, 0x00, 0x89, 0x23, 0x7F, 0x48, 0x99, 0x2D, 0x7F, 0x00, 0x99, 0x2D, 0x7F, 0x84, 0x78, 0x89, 0x2D, 0x7F, 0x00, 0x89, 0x2D, 0x7F, 0x81, 0x08, 0x99, 0x23, 0x7F, 0x00, 0x99, 0x23, 0x7F, 0x00, 0x99, 0x24, 0x7F, 0x84, 0x78, 0x89, 0x23, 0x7F, 0x00, 0x89, 0x23, 0x7F, 0x00, 0x89, 0x24, 0x7D, 0x81, 0x08, 0x99, 0x2D, 0x7F, 0x00, 0x99, 0x2D, 0x7F, 0x84, 0x78, 0x89, 0x2D, 0x7F, 0x00, 0x89, 0x2D, 0x7F, 0x81, 0x08, 0x99, 0x23, 0x7F, 0x00, 0x99, 0x23, 0x7F, 0x00, 0x99, 0x24, 0x7F, 0x82, 0x38, 0x89, 0x23, 0x7F, 0x00, 0x89, 0x23, 0x7F, 0x48, 0x99, 0x23, 0x7F, 0x00, 0x99, 0x23, 0x7F, 0x81, 0x78, 0x89, 0x24, 0x7D, 0x40, 0x89, 0x23, 0x7F, 0x00, 0x89, 0x23, 0x7F, 0x48, 0x99, 0x2D, 0x7F, 0x00, 0x99, 0x2D, 0x7F, 0x84, 0x78, 0x89, 0x2D, 0x7F, 0x00, 0x89, 0x2D, 0x7F, 0x81, 0x08, 0x99, 0x23, 0x7F, 0x00, 0x99, 0x23, 0x7F, 0x00, 0x99, 0x24, 0x7F, 0x84, 0x78, 0x89, 0x23, 0x7F, 0x00, 0x89, 0x23, 0x7F, 0x00, 0x89, 0x24, 0x7D, 0x81, 0x08, 0x99, 0x2D, 0x7F, 0x00, 0x99, 0x2D, 0x7F, 0x84, 0x78, 0x89, 0x2D, 0x7F, 0x00, 0x89, 0x2D, 0x7F, 0x81, 0x08, 0x99, 0x23, 0x7F, 0x00, 0x99, 0x23, 0x7F, 0x00, 0x99, 0x24, 0x7F, 0x82, 0x38, 0x89, 0x23, 0x7F, 0x00, 0x89, 0x23, 0x7F, 0x48, 0x99, 0x23, 0x7F, 0x00, 0x99, 0x23, 0x7F, 0x81, 0x78, 0x89, 0x24, 0x7D, 0x40, 0x89, 0x23, 0x7F, 0x00, 0x89, 0x23, 0x7F, 0x48, 0x99, 0x2D, 0x7F, 0x00, 0x99, 0x2D, 0x7F, 0x84, 0x78, 0x89, 0x2D, 0x7F, 0x00, 0x89, 0x2D, 0x7F, 0x81, 0x08, 0x99, 0x23, 0x7F, 0x00, 0x99, 0x23, 0x7F, 0x00, 0x99, 0x24, 0x7F, 0x84, 0x78, 0x89, 0x23, 0x7F, 0x00, 0x89, 0x23, 0x7F, 0x00, 0x89, 0x24, 0x7D, 0x81, 0x08, 0x99, 0x2D, 0x7F, 0x00, 0x99, 0x2D, 0x7F, 0x84, 0x78, 0x89, 0x2D, 0x7F, 0x00, 0x89, 0x2D, 0x7F, 0x81, 0x08, 0x99, 0x23, 0x7F, 0x00, 0x99, 0x23, 0x7F, 0x00, 0x99, 0x24, 0x7F, 0x82, 0x38, 0x89, 0x23, 0x7F, 0x00, 0x89, 0x23, 0x7F, 0x48, 0x99, 0x23, 0x7F, 0x00, 0x99, 0x23, 0x7F, 0x81, 0x78, 0x89, 0x24, 0x7D, 0x40, 0x89, 0x23, 0x7F, 0x00, 0x89, 0x23, 0x7F, 0x48, 0x99, 0x2D, 0x7F, 0x00, 0x99, 0x2D, 0x7F, 0x84, 0x78, 0x89, 0x2D, 0x7F, 0x00, 0x89, 0x2D, 0x7F, 0x81, 0x08, 0x99, 0x23, 0x7F, 0x00, 0x99, 0x23, 0x7F, 0x00, 0x99, 0x24, 0x7F, 0x84, 0x78, 0x89, 0x23, 0x7F, 0x00, 0x89, 0x23, 0x7F, 0x00, 0x89, 0x24, 0x7D, 0x81, 0x08, 0x99, 0x2D, 0x7F, 0x00, 0x99, 0x2D, 0x7F, 0x84, 0x78, 0x89, 0x2D, 0x7F, 0x00, 0x89, 0x2D, 0x7F, 0x81, 0x08, 0x99, 0x23, 0x7F, 0x00, 0x99, 0x23, 0x7F, 0x00, 0x99, 0x24, 0x7F, 0x82, 0x38, 0x89, 0x23, 0x7F, 0x00, 0x89, 0x23, 0x7F, 0x48, 0x99, 0x23, 0x7F, 0x00, 0x99, 0x23, 0x7F, 0x81, 0x78, 0x89, 0x24, 0x7D, 0x40, 0x89, 0x23, 0x7F, 0x00, 0x89, 0x23, 0x7F, 0x48, 0x99, 0x2D, 0x7F, 0x00, 0x99, 0x2D, 0x7F, 0x84, 0x78, 0x89, 0x2D, 0x7F, 0x00, 0x89, 0x2D, 0x7F, 0x81, 0x08, 0x99, 0x23, 0x7F, 0x00, 0x99, 0x23, 0x7F, 0x84, 0x78, 0x89, 0x23, 0x7F, 0x00, 0x89, 0x23, 0x7F, 0x81, 0x08, 0x99, 0x2D, 0x7F, 0x00, 0x99, 0x2D, 0x7F, 0x84, 0x78, 0x89, 0x2D, 0x7F, 0x00, 0x89, 0x2D, 0x7F, 0x81, 0x08, 0x99, 0x23, 0x7F, 0x00, 0x99, 0x23, 0x7F, 0x82, 0x38, 0x89, 0x23, 0x7F, 0x00, 0x89, 0x23, 0x7F, 0x48, 0x99, 0x23, 0x7F, 0x00, 0x99, 0x23, 0x7F, 0x82, 0x38, 0x89, 0x23, 0x7F, 0x00, 0x89, 0x23, 0x7F, 0x48, 0x99, 0x2D, 0x7F, 0x00, 0x99, 0x2D, 0x7F, 0x84, 0x78, 0x89, 0x2D, 0x7F, 0x00, 0x89, 0x2D, 0x7F, 0x00, 0xFF, 0x2F, 0x00, 0x4D, 0x54, 0x72, 0x6B, 0x00, 0x00, 0x00, 0x0A, 0x00, 0xFF, 0x59, 0x02, 0x00, 0x00, 0x00, 0xFF, 0x2F, 0x00, 0x4D, 0x54, 0x72, 0x6B, 0x00, 0x00, 0x00, 0x0A, 0x00, 0xFF, 0x59, 0x02, 0x00, 0x00, 0x00, 0xFF, 0x2F, 0x00, 0x4D, 0x54, 0x72, 0x6B, 0x00, 0x00, 0x00, 0x0A, 0x00, 0xFF, 0x59, 0x02, 0x00, 0x00, 0x00, 0xFF, 0x2F, 0x00, 0x4D, 0x54, 0x72, 0x6B, 0x00, 0x00, 0x00, 0x0A, 0x00, 0xFF, 0x59, 0x02, 0x00, 0x00, 0x00, 0xFF, 0x2F, 0x00, 0x4D, 0x54, 0x72, 0x6B, 0x00, 0x00, 0x00, 0x0A, 0x00, 0xFF, 0x59, 0x02, 0x00, 0x00, 0x00, 0xFF, 0x2F, 0x00, 0x4D, 0x54, 0x72, 0x6B, 0x00, 0x00, 0x00, 0x0A, 0x00, 0xFF, 0x59, 0x02, 0x00, 0x00, 0x00, 0xFF, 0x2F, 0x00, 0x4D, 0x54, 0x72, 0x6B, 0x00, 0x00, 0x00, 0x0A, 0x00, 0xFF, 0x59, 0x02, 0x00, 0x00, 0x00, 0xFF, 0x2F, 0x00, 0x4D, 0x54, 0x72, 0x6B, 0x00, 0x00, 0x00, 0x0A, 0x00, 0xFF, 0x59, 0x02, 0x00, 0x00, 0x00, 0xFF, 0x2F, 0x00, 0x4D, 0x54, 0x72, 0x6B, 0x00, 0x00, 0x00, 0x0A, 0x00, 0xFF, 0x59, 0x02, 0x00, 0x00, 0x00, 0xFF, 0x2F, 0x00, 0x4D, 0x54, 0x72, 0x6B, 0x00, 0x00, 0x00, 0x0A, 0x00, 0xFF, 0x59, 0x02, 0x00, 0x00, 0x00, 0xFF, 0x2F, 0x00, 0x4D, 0x54, 0x72, 0x6B, 0x00, 0x00, 0x00, 0x0A, 0x00, 0xFF, 0x59, 0x02, 0x00, 0x00, 0x00, 0xFF, 0x2F, 0x00, 0x4D, 0x54, 0x72, 0x6B, 0x00, 0x00, 0x00, 0x0A, 0x00, 0xFF, 0x59, 0x02, 0x00, 0x00, 0x00, 0xFF, 0x2F, 0x00, 0x4D, 0x54, 0x72, 0x6B, 0x00, 0x00, 0x00, 0x0A, 0x00, 0xFF, 0x59, 0x02, 0x00, 0x00, 0x00, 0xFF, 0x2F, 0x00, 0x4D, 0x54, 0x72, 0x6B, 0x00, 0x00, 0x00, 0x0A, 0x00, 0xFF, 0x59, 0x02, 0x00, 0x00, 0x00, 0xFF, 0x2F, 0x00, 0x4D, 0x54, 0x72, 0x6B, 0x00, 0x00, 0x00, 0x0A, 0x00, 0xFF, 0x59, 0x02, 0x00, 0x00, 0x00, 0xFF, 0x2F, 0x00, 0x4D, 0x54, 0x72, 0x6B, 0x00, 0x00, 0x00, 0x0A, 0x00, 0xFF, 0x59, 0x02, 0x00, 0x00, 0x00, 0xFF, 0x2F, 0x00, 0x4D, 0x54, 0x72, 0x6B, 0x00, 0x00, 0x00, 0x0A, 0x00, 0xFF, 0x59, 0x02, 0x00, 0x00, 0x00, 0xFF, 0x2F, 0x00
};


